<svg width="12" height="15" viewBox="0 0 12 15" fill="none" xmlns="http://www.w3.org/2000/svg">
<path d="M6.13343 9.89957L5.4878 10.2869C4.68436 10.7604 4.1033 11.155 3.74462 11.4706C3.38594 11.7862 3.14921 12.1593 3.03443 12.5897H10.9541V15H0V13.8594C0 12.8407 0.200861 11.9799 0.602582 11.2769C1.0043 10.5739 1.48494 10.0072 2.04448 9.57676C2.54663 9.17504 3.3142 8.65136 4.3472 8.00574C5.02152 7.60402 5.36585 7.40316 5.3802 7.40316C6.02583 7.03013 6.53515 6.71449 6.90818 6.45624C7.72597 5.86801 8.13486 5.17934 8.13486 4.39024C8.13486 3.80201 7.934 3.33572 7.53228 2.99139C7.13056 2.64706 6.60689 2.47489 5.96126 2.47489C5.30129 2.47489 4.67719 2.66858 4.08895 3.05595C3.51506 3.44333 2.87661 4.08178 2.1736 4.97131L0.0430416 3.46485C1.59254 1.15495 3.54376 0 5.8967 0C7.48924 0 8.73745 0.416069 9.64132 1.24821C10.5595 2.08034 11.0187 3.11334 11.0187 4.3472C11.0187 5.20803 10.8465 5.92539 10.5022 6.49928C10.1722 7.08752 9.74892 7.57532 9.23242 7.9627C8.70158 8.35007 7.98422 8.80918 7.08034 9.34003L6.13343 9.89957Z" fill="#142630"/>
</svg>
