<svg width="12" height="15" viewBox="0 0 12 15" fill="none" xmlns="http://www.w3.org/2000/svg">
<path d="M11.1478 10.1363C11.1478 11.4562 10.6456 12.5968 9.64132 13.5581C8.65136 14.5194 7.31707 15 5.63845 15C4.63415 15 3.6944 14.8565 2.81923 14.5696C1.95839 14.2826 1.01865 13.7948 0 13.1062L1.39885 11.0617C2.27403 11.5925 3.02009 11.9727 3.63702 12.2023C4.25395 12.4175 4.8924 12.5251 5.55237 12.5251C6.39885 12.5251 7.05882 12.3171 7.53228 11.901C8.00574 11.4706 8.24247 10.8895 8.24247 10.1578C8.24247 9.44046 7.98422 8.88092 7.46772 8.4792C6.95122 8.06313 6.26255 7.85509 5.40172 7.85509C4.71306 7.85509 4.13199 7.94835 3.65854 8.13486L2.38881 6.39168L7.08034 2.41033H0.753228V0H10.5882V2.36729L6.58537 5.76757C7.9627 5.83931 9.06026 6.26255 9.87805 7.0373C10.7245 7.81205 11.1478 8.84505 11.1478 10.1363Z" fill="#142630"/>
</svg>
