<svg width="580" height="580" viewBox="0 0 580 580" fill="none" xmlns="http://www.w3.org/2000/svg">
<g clip-path="url(#clip0)">
<g clip-path="url(#clip1)">
<path d="M91.8639 149.83C79.7287 151.243 66.3651 155.662 53.4613 163.112C40.5574 170.562 30.0489 179.926 22.7572 189.729C20.5359 192.715 21.4044 196.961 24.6032 198.85L28.1437 200.941C31.3808 195.411 35.6051 190.117 40.7001 185.205C45.9309 180.163 51.9255 175.676 58.5176 171.87C65.1097 168.064 71.9925 165.116 78.9749 163.107C85.776 161.15 92.4733 160.139 98.8811 160.101L98.8406 155.989C98.8039 152.275 95.5609 149.399 91.8639 149.83Z" fill="#F3F4F6"/>
<path d="M87.6943 208.046C84.4925 209.894 83.3779 213.979 85.2095 217.152C87.0411 220.324 91.1363 221.401 94.3379 219.553C97.5398 217.704 98.6544 213.619 96.8228 210.447C94.9912 207.274 90.8962 206.197 87.6943 208.046Z" fill="#F3F4F6"/>
<path d="M32.5824 203.563L43.596 210.067C42.2717 205.041 44.4161 199.529 49.1512 196.795C54.8146 193.526 62.0688 195.449 65.3217 201.083C68.5747 206.718 66.6135 213.962 60.9499 217.231C59.9532 217.807 58.9067 218.218 57.8419 218.48L92.3843 238.88C93.986 239.826 95.8033 239.712 97.2155 238.897C98.6277 238.081 99.635 236.565 99.6165 234.705L99.4914 222.011C98.7456 222.777 97.8864 223.457 96.9154 224.017C91.2519 227.287 83.9977 225.364 80.7448 219.729C77.4918 214.095 79.453 206.851 85.1166 203.581C89.826 200.862 95.633 201.737 99.3271 205.347L98.9318 165.256C87.2214 165.322 73.8363 168.978 61.0951 176.334C48.354 183.691 38.4948 193.454 32.5824 203.563ZM72.1053 178.092C77.3508 175.064 84.0695 176.846 87.0827 182.065C90.0958 187.284 88.2797 193.993 83.0343 197.022C77.7889 200.05 71.0702 198.268 68.057 193.049C65.0439 187.83 66.8599 181.121 72.1053 178.092Z" fill="#F3F4F6"/>
<path d="M58.3721 212.767C61.5789 210.916 62.6914 206.839 60.8568 203.661C59.0222 200.484 54.9353 199.409 51.7284 201.26C48.5216 203.112 47.4091 207.188 49.2437 210.366C51.0783 213.544 55.1652 214.619 58.3721 212.767Z" fill="#F3F4F6"/>
<path d="M80.4564 192.557C83.2401 190.95 84.2097 187.4 82.6179 184.642C81.0261 181.885 77.4663 180.95 74.6825 182.557C71.8989 184.164 70.9293 187.714 72.5212 190.472C74.1131 193.229 77.6726 194.165 80.4564 192.557Z" fill="#F3F4F6"/>
</g>
<g clip-path="url(#clip2)">
<path d="M3.33223 262.666L4.49331 263.843C1.32957 272.275 3.08021 282.167 9.78055 288.959L46.3375 326.017C50.8884 330.63 56.8539 332.938 62.8194 332.938C65.6364 332.938 68.4474 332.405 71.1146 331.377L72.2772 332.555C75.6089 335.933 81.6709 335.264 85.8169 331.061C89.963 326.858 90.6231 320.713 87.2911 317.336L85.3326 315.35C87.3781 307.487 85.3815 298.767 79.2998 292.602L42.7429 255.544C38.192 250.931 32.2265 248.623 26.2609 248.623C24.2551 248.623 22.2539 248.907 20.3015 249.429L18.3445 247.445C15.0127 244.067 8.95099 244.736 4.80491 248.939C0.66183 253.144 0.00029099 259.288 3.33223 262.666ZM62.8194 328.292C57.8179 328.292 53.1157 326.317 49.5778 322.732L13.0206 285.675C9.48398 282.09 7.5362 277.323 7.5362 272.252C7.5362 270.638 7.75458 269.062 8.13816 267.538L67.4696 327.682C65.9665 328.071 64.4113 328.292 62.8194 328.292ZM26.2625 253.269C31.264 253.269 35.9662 255.244 39.5041 258.829L76.0611 295.886C79.5977 299.471 81.5455 304.238 81.5455 309.309C81.5455 310.009 81.4996 310.703 81.4264 311.389L24.2107 253.39C24.8875 253.316 25.572 253.269 26.2625 253.269ZM7.75026 255.028C8.72189 254.903 9.66741 254.825 10.5887 254.804C12.9214 254.746 15.083 255.037 17.0233 255.751C20.4559 257.015 23.1996 259.606 24.9824 263.961C26.4214 267.474 25.893 273.258 31.2106 274.339C33.1141 274.726 35.5232 275.056 37.1684 276.25C40.4254 278.615 42.9171 281.22 43.7434 285.356C45.1748 292.509 48.1049 297.025 55.4987 298.497C58.6427 299.123 62.5458 299.801 64.8328 302.369C67.5765 305.45 69.0323 309.136 70.0682 313.121C71.3973 318.229 73.2334 319.865 77.9692 320.433C78.4673 320.493 78.9852 320.544 79.5504 320.583C81.0093 320.684 81.7457 321.885 81.7549 323.042C81.7626 324.08 81.1835 325.077 80.0133 325.215C79.8667 325.232 79.7139 325.241 79.5489 325.23C77.5293 325.091 75.7266 324.848 74.1287 324.414C70.0759 323.316 67.3658 320.962 66.0046 315.727C64.4051 309.577 62.546 304.623 55.7921 303.279C52.2373 302.571 48.386 301.789 45.5613 299.29C42.0524 296.184 40.572 292.831 39.6584 288.264C38.0085 280.015 32.1699 280.126 25.9309 277.371C21.3937 275.368 22.761 270.57 21.293 266.982C19.2368 261.958 16.4854 259.878 12.4141 259.507C11.0224 259.38 9.47646 259.451 7.75007 259.674C7.3071 259.731 6.94194 259.663 6.63485 259.524C4.90884 258.736 5.29674 255.347 7.75026 255.028Z" fill="#F3F4F6"/>
</g>
<g clip-path="url(#clip3)">
<path d="M579.908 316.316L579.277 309.419C579.17 308.248 578.344 307.268 577.209 306.964L519.023 291.373C517.888 291.069 516.683 291.505 516.005 292.465L512.009 298.123C510.883 299.717 511.689 301.947 513.575 302.452L576.388 319.283C578.274 319.788 580.087 318.26 579.908 316.316Z" fill="#F3F4F6"/>
<path d="M553.01 288.862L570.075 281.233C571.691 280.511 572.415 278.616 571.693 277.001C570.971 275.386 569.076 274.662 567.461 275.384L549.003 283.635C548.122 284.029 547.465 284.799 547.215 285.73L545.574 291.854L551.763 293.513L553.01 288.862Z" fill="#F3F4F6"/>
<path d="M510.325 354.973L521.899 375.019L530.555 377.339L511.686 344.656L510.325 354.973Z" fill="#F3F4F6"/>
<path d="M508.327 370.117C508.235 370.817 508.675 371.476 509.357 371.659L513.146 372.674L508.949 365.404L508.327 370.117Z" fill="#F3F4F6"/>
<path d="M516.282 309.81L515.798 313.476L550.189 373.043L553.244 365.661L521.862 311.306L516.282 309.81Z" fill="#F3F4F6"/>
<path d="M568.623 328.507L570.364 324.302L565.433 322.98L568.623 328.507Z" fill="#F3F4F6"/>
<path d="M530.615 313.651L556.334 358.198L559.389 350.816L539.271 315.97L530.615 313.651Z" fill="#F3F4F6"/>
<path d="M513.062 334.224L539.308 379.684L545.438 381.327C546.119 381.509 546.83 381.158 547.1 380.506L514.423 323.907L513.062 334.224Z" fill="#F3F4F6"/>
<path d="M548.023 318.315L562.478 343.352L565.534 335.97L556.68 320.635L548.023 318.315Z" fill="#F3F4F6"/>
</g>
<g clip-path="url(#clip4)">
<path d="M508.124 180.819C508.929 181.283 509.671 181.85 510.331 182.501C510.404 182.572 510.489 182.64 510.562 182.712L517.498 168.605C517.732 168.13 518.158 167.769 518.66 167.615C519.173 167.461 519.73 167.524 520.189 167.789L523.211 169.534L514.828 186.578C516.084 187.639 517.395 188.684 518.754 189.71L530.898 165.014C531.132 164.539 531.557 164.179 532.06 164.024C532.573 163.871 533.13 163.934 533.588 164.199L536.422 165.835L525.575 187.888L523.146 192.826C524.498 193.739 525.892 194.615 527.31 195.478L542.663 164.256C542.897 163.781 543.322 163.42 543.825 163.266C544.337 163.112 544.894 163.175 545.353 163.44L550.502 166.413C550.962 166.678 551.295 167.129 551.418 167.644C551.536 168.162 551.436 168.711 551.139 169.155L531.778 198.058C533.235 198.854 534.691 199.623 536.157 200.338L539.219 195.767L552.894 175.345L555.728 176.981C556.187 177.246 556.52 177.697 556.643 178.212C556.761 178.73 556.661 179.279 556.364 179.723L541.051 202.584C542.619 203.247 544.18 203.86 545.728 204.417L556.296 188.636L559.319 190.381C559.778 190.646 560.111 191.096 560.234 191.611C560.352 192.129 560.252 192.678 559.955 193.122L551.21 206.178C551.309 206.206 551.412 206.246 551.511 206.273C552.402 206.519 553.26 206.878 554.061 207.341C554.611 207.658 555.126 208.023 555.607 208.426L564.026 195.855C565.078 194.294 565.437 192.345 565.009 190.499C564.579 188.663 563.399 187.074 561.771 186.133L559.032 184.552L560.436 182.455C561.488 180.895 561.847 178.945 561.419 177.099C560.989 175.264 559.809 173.674 558.18 172.734L555.564 171.223C556.312 169.789 556.564 168.129 556.193 166.531C555.764 164.696 554.584 163.106 552.955 162.166L547.806 159.193C546.177 158.252 544.21 158.025 542.4 158.574C540.836 159.05 539.523 160.099 538.657 161.462L536.041 159.952C534.412 159.011 532.445 158.784 530.636 159.332C528.829 159.882 527.32 161.168 526.497 162.855L525.381 165.124L522.641 163.542C521.013 162.602 519.045 162.375 517.236 162.923C515.429 163.473 513.92 164.758 513.097 166.445L506.417 180.026C507.004 180.241 507.576 180.503 508.124 180.819Z" fill="#F3F4F6"/>
<path d="M552.734 215.337C552.379 214.341 551.685 213.52 550.792 213.004C550.474 212.821 550.132 212.677 549.77 212.577C542.416 210.55 534.323 207.165 526.237 202.496C518.151 197.828 511.173 192.512 505.74 187.158C505.472 186.894 505.175 186.667 504.854 186.482C503.961 185.967 502.905 185.777 501.869 185.97C500.461 186.23 499.271 187.161 498.678 188.463L481.11 227.071C479.763 230.038 480.885 233.541 483.708 235.171L519.207 255.666C522.03 257.296 525.626 256.515 527.518 253.864L552.17 219.347C553.001 218.182 553.21 216.684 552.734 215.337Z" fill="#F3F4F6"/>
</g>
<g clip-path="url(#clip5)">
<path d="M199.319 267.616C198.485 268.618 196.804 268.725 195.802 267.876L195.457 267.595C192.692 265.384 189.115 264.284 185.564 264.571C181.819 264.873 178.418 266.615 175.973 269.49C175.547 269.991 174.949 270.297 174.284 270.35C174.281 270.351 174.281 270.351 174.281 270.351C173.652 270.401 173.04 270.221 172.55 269.842L172.453 269.758C166.541 264.737 157.645 265.458 152.623 271.359L152.504 271.501C152.079 271.933 151.625 272.264 150.885 272.243C150.885 272.243 150.882 272.243 150.879 272.243C150.242 272.295 149.596 272.083 149.094 271.655C146.231 269.218 142.591 268.044 138.849 268.346C135.722 268.599 132.746 269.915 130.453 272.022L129.258 273.258C128.673 273.946 127.94 274.101 127.559 274.133C127.559 274.133 127.559 274.133 127.556 274.134C127.174 274.165 126.43 274.129 125.746 273.546C123.415 271.563 119.922 271.847 117.939 274.175C115.956 276.504 116.239 280.001 118.57 281.984C121.332 284.332 124.839 285.467 128.448 285.175C128.451 285.175 128.455 285.175 128.459 285.175C131.492 284.926 134.298 283.697 136.507 281.67L137.709 280.426C138.723 279.228 140.71 279.067 141.911 280.086C144.631 282.408 148.219 283.572 151.724 283.289C151.756 283.285 151.792 283.28 151.839 283.279C155.423 282.99 158.691 281.317 161.049 278.563L161.197 278.386C162.26 277.3 163.987 277.184 165.185 278.124L165.278 278.203C168.036 280.553 171.55 281.685 175.17 281.393C175.17 281.393 175.177 281.392 175.18 281.392C178.8 281.099 182.083 279.416 184.424 276.65C185.449 275.455 187.429 275.29 188.603 276.3L188.979 276.606C191.681 278.752 195.049 279.783 198.526 279.51C202.109 279.221 205.486 277.488 207.79 274.757C209.761 272.418 209.464 268.924 207.127 266.953C204.785 264.982 201.296 265.274 199.319 267.616Z" fill="#F3F4F6"/>
<path d="M125.512 310.612L205.517 304.146C210.887 303.712 214.887 299.008 214.453 293.636C214.019 288.266 209.315 284.264 203.941 284.698L123.943 291.163C118.57 291.598 114.569 296.304 115.003 301.674C115.437 307.045 120.142 311.046 125.512 310.612Z" fill="#F3F4F6"/>
<path d="M212.618 312.287L119.677 319.799C118.897 319.862 118.198 320.305 117.812 320.984C117.422 321.661 117.394 322.489 117.733 323.194C121.473 330.928 128.368 337.317 137.146 341.586C139.676 342.816 142.453 343.333 145.256 343.107L191.113 339.401C193.898 339.175 196.588 338.209 198.874 336.597C206.853 330.974 212.632 323.561 215.081 315.326C215.303 314.576 215.143 313.764 214.649 313.156C214.158 312.55 213.397 312.224 212.618 312.287Z" fill="#F3F4F6"/>
<path d="M116.057 265.881L207.671 258.477C208.178 258.436 208.637 258.157 208.903 257.724C209.171 257.292 209.219 256.758 209.029 256.287C202.581 240.201 182.356 229.481 159.374 231.338C136.388 233.196 118.144 247.025 114.366 263.938C114.254 264.433 114.387 264.953 114.721 265.336C115.053 265.72 115.55 265.922 116.057 265.881ZM188.183 240.487C189.729 240.362 191.084 241.514 191.209 243.061C191.334 244.608 190.181 245.962 188.636 246.087C187.087 246.212 185.734 245.061 185.609 243.513C185.484 241.966 186.634 240.612 188.183 240.487ZM172.087 247.866C173.752 247.731 175.212 248.972 175.347 250.64C175.481 252.304 174.239 253.764 172.575 253.899C170.907 254.033 169.45 252.791 169.315 251.127C169.181 249.459 170.42 248.001 172.087 247.866ZM155.195 238.097C156.744 237.972 158.096 239.124 158.221 240.671C158.346 242.218 157.197 243.572 155.648 243.697C154.102 243.822 152.747 242.671 152.622 241.123C152.497 239.576 153.65 238.222 155.195 238.097ZM135.732 244.726C137.849 244.555 139.706 246.132 139.877 248.251C140.048 250.37 138.469 252.225 136.352 252.396C134.231 252.568 132.378 250.99 132.207 248.871C132.035 246.752 133.611 244.897 135.732 244.726Z" fill="#F3F4F6"/>
</g>
<g clip-path="url(#clip6)">
<path d="M528.755 433.416C527.502 432.098 525.63 431.571 523.876 432.041L522.611 432.38C522.608 432.001 522.646 431.648 522.621 431.254C522.311 426.426 520.396 421.041 517.226 416.089C512.549 408.774 500.469 401.012 493.683 397.036C492.115 396.12 490.047 396.175 488.537 397.138C486.961 398.142 486.097 399.919 486.282 401.773C486.656 405.607 487.329 410.977 488.462 416.316C488.213 416.191 487.951 416.1 487.687 416.02C483.023 407.771 476.051 403.259 469.94 405.249C464.614 407.069 461.827 413.566 462.223 421.611C458.696 420.671 455.334 420.51 452.501 421.269C450.149 421.899 448.128 423.107 446.763 425.127C445.661 423.054 444.591 421.151 443.673 419.585C442.732 417.977 440.991 417.045 439.125 417.152C437.289 417.268 435.642 418.41 434.899 420.096C431.74 427.293 426.516 440.663 427.02 449.336C427.189 452.242 427.674 455.051 428.429 457.646C426.762 458.172 425.476 459.518 425.079 461.233C424.664 463.016 425.268 464.885 426.647 466.091L436.943 475.091C440.363 478.079 445.049 479.168 449.437 477.992L516.325 460.07C520.788 458.874 524.343 455.496 525.763 451.097L529.879 438.358C530.438 436.63 530.008 434.733 528.755 433.416ZM471.934 410.334C474.687 409.597 478.855 412.331 482.176 417.512C478.31 420.173 473.235 423.926 468.833 428.033C466.284 419.023 468.141 411.623 471.934 410.334ZM436.355 455.492L433.684 456.208C433.031 453.99 432.606 451.561 432.458 449.021C432.027 441.616 436.938 429.131 439.483 423.215C441.049 425.934 443.346 430.137 445.346 434.584C437.093 436.332 432.749 444.364 434.742 451.799C435.101 453.141 435.66 454.37 436.355 455.492ZM456.477 450.101L442.036 453.97C441.109 452.982 440.378 451.787 440.003 450.389C438.789 445.856 441.488 441.18 446.022 439.965C450.556 438.75 455.232 441.45 456.447 445.983C456.821 447.381 456.786 448.782 456.477 450.101ZM451.44 434.672C450.334 431.965 450.244 429.606 451.299 428.162C451.862 427.394 452.74 426.845 453.911 426.531C456.051 425.958 459.324 426.209 463.06 427.596C463.359 428.904 464.074 431.567 464.567 432.473C463.234 434.027 462.039 435.584 461.196 437.106C460.609 438.166 460.14 439.229 459.67 440.292C457.702 437.446 454.765 435.47 451.44 434.672ZM475.962 444.88L479.914 437.746C480.643 436.429 480.167 434.772 478.852 434.043C477.539 433.315 475.877 433.792 475.149 435.105L468.648 446.84L462.695 448.435C463.237 445.752 464.273 442.794 465.962 439.746C469.584 433.207 480.565 425.198 485.694 421.663C485.487 426.734 484.811 436.114 482.774 443.054L475.962 444.88ZM501.216 438.113L489.827 441.165C489.544 441.007 489.246 440.875 488.982 440.687C490.045 435.735 490.614 430.4 490.914 425.864C491.175 425.766 491.42 425.642 491.694 425.568C496.228 424.353 500.904 427.053 502.119 431.587C502.734 433.883 502.339 436.212 501.216 438.113ZM507.485 436.433C507.759 435.044 507.875 433.618 507.702 432.158L510.006 435.758L507.485 436.433ZM517.185 431.603C517.236 432.412 517.207 433.152 517.133 433.848L515.527 434.278L503.174 414.972C502.361 413.705 500.679 413.333 499.412 414.146C498.146 414.958 497.775 416.641 498.586 417.909L501.134 421.892C499.278 420.763 497.167 420.1 494.958 419.928C493.214 413.704 492.251 406.492 491.807 402.256C497.344 405.554 508.646 412.781 512.637 419.024C515.318 423.213 516.932 427.68 517.185 431.603Z" fill="#F3F4F6"/>
</g>
<g clip-path="url(#clip7)">
<path d="M491.511 278.705C490.149 277.108 487.749 276.919 486.153 278.282L447.181 311.549L444.642 308.693L483.873 276.012C483.932 275.963 483.998 275.905 484.055 275.851C485.578 274.406 485.642 272 484.198 270.477C482.754 268.954 480.348 268.889 478.824 270.335L441.771 305.464L440.713 304.274C439.877 303.335 438.438 303.249 437.495 304.085C436.934 304.584 436.717 305.295 436.779 305.99C436.097 305.848 435.367 305.98 434.805 306.478C434.244 306.977 434.028 307.688 434.09 308.383C433.407 308.24 432.675 308.372 432.113 308.871C431.172 309.707 431.088 311.147 431.924 312.089L433.232 313.561L428.704 317.853C428.106 318.424 428.04 319.371 428.577 320.015C429.136 320.687 430.134 320.778 430.807 320.218L435.6 316.225L438.233 319.187L433.553 323.183C432.926 323.722 432.811 324.665 433.314 325.337C433.838 326.037 434.83 326.179 435.53 325.656L440.606 321.856L442.492 323.978C443.084 324.644 443.98 324.88 444.787 324.664C445.119 324.575 445.436 324.41 445.711 324.166C445.941 323.961 446.117 323.718 446.244 323.457L450.664 339.952L419.566 348.285C418.305 348.623 417.301 349.577 416.899 350.82C416.498 352.063 416.754 353.425 417.58 354.437L432.999 373.342C434.587 375.288 437.168 376.122 439.595 375.472L474.943 366.001C477.369 365.351 479.189 363.337 479.59 360.858L483.491 336.776C483.7 335.487 483.241 334.18 482.272 333.304C481.303 332.428 479.956 332.103 478.695 332.441L455.067 338.772L450.019 319.906C450.372 319.811 450.82 319.626 451.094 319.382C452.035 318.545 452.119 317.106 451.283 316.164L450.056 314.784L490.898 284.216C490.96 284.17 491.029 284.115 491.088 284.064C492.685 282.7 492.874 280.302 491.511 278.705Z" fill="#F3F4F6"/>
</g>
<path d="M150.903 111.827C148.977 113.588 146.735 115.212 144.122 116.616C142.641 117.408 140.97 117.829 139.285 117.829H98.6736C96.984 117.829 95.3099 117.408 93.8328 116.614C91.2216 115.21 88.9815 113.587 87.056 111.828C84.9307 113.15 83.709 114.619 83.709 116.175C83.709 121.849 99.5004 126.448 118.98 126.448C138.46 126.448 154.251 121.849 154.251 116.175C154.251 114.619 153.029 113.149 150.903 111.827Z" fill="#F3F4F6"/>
<path d="M95.7196 113.102C96.6321 113.593 97.6378 113.842 98.6732 113.842H139.285C140.314 113.842 141.333 113.587 142.239 113.102C149.541 109.178 154.16 103.446 154.16 97.0483C154.16 94.3407 153.301 91.7608 151.797 89.3758C150.24 95.6324 146.1 102.613 143.05 105.66C140.327 108.386 136.705 109.886 132.852 109.886C129.003 109.886 125.383 108.388 122.659 105.666C117.04 100.041 117.04 90.8945 122.66 85.2749C125.038 82.8985 129.807 79.8824 134.757 77.9171C130.007 76.4611 124.66 75.6221 118.98 75.6221C99.5493 75.6221 83.7983 85.2154 83.7983 97.0485C83.7983 103.446 88.4168 109.178 95.7196 113.102Z" fill="#F3F4F6"/>
<path d="M162.146 69.8805C161.477 69.2137 160.607 68.8891 159.733 68.8891C159.629 68.8891 159.527 68.8918 159.423 68.9022C159.505 67.9262 159.189 66.9243 158.443 66.1769C157.772 65.5071 156.894 65.1699 156.015 65.1699C155.136 65.1699 154.258 65.5073 153.586 66.1794C152.457 67.3087 152.29 69.0216 153.061 70.3376L143.521 79.8787C143.516 79.8787 143.51 79.8787 143.503 79.8787C137.788 79.8787 128.686 84.8883 125.48 88.0939C121.407 92.1663 121.407 98.7719 125.48 102.847C127.514 104.882 130.184 105.9 132.852 105.9C135.523 105.9 138.193 104.88 140.23 102.842C143.439 99.6363 148.454 90.5182 148.445 84.8L157.985 75.2613C158.524 75.5781 159.128 75.7365 159.733 75.7365C160.607 75.7365 161.477 75.4067 162.144 74.7372C163.486 73.3949 163.484 71.2225 162.146 69.8805Z" fill="#F3F4F6"/>
<g clip-path="url(#clip8)">
<path d="M120.891 408.53L54.2338 408.693C52.9995 408.701 51.9337 409.637 51.8076 410.892C51.6731 412.236 52.6527 413.435 53.9943 413.569L120.32 420.238C120.513 420.257 120.721 420.269 120.919 420.268C124.163 420.261 126.783 417.626 126.775 414.384C126.769 411.143 124.132 408.521 120.891 408.53Z" fill="#F3F4F6"/>
<path d="M109.174 425.964L39.5931 417.399C38.3613 417.251 37.1856 418.056 36.9081 419.292C36.6143 420.609 37.4436 421.915 38.7604 422.21L107.175 437.515C107.357 437.555 107.552 437.59 107.739 437.613C110.957 438.01 113.884 435.722 114.281 432.505C114.678 429.288 112.39 426.36 109.174 425.964Z" fill="#F3F4F6"/>
<path d="M123.938 358.778C115.091 356.407 105.285 357.185 103.658 363.256L103.005 365.695C100.859 364.603 98.4761 363.693 96.0249 363.036C87.1781 360.665 77.3695 361.442 75.7431 367.511L75.1079 369.882C73.0475 368.862 70.7811 368.008 68.4525 367.384C59.6057 365.014 49.797 365.79 48.1707 371.86C48.0429 372.337 44.6309 385.071 44.5031 385.547C42.8764 391.618 50.9827 397.195 59.8295 399.566C68.6763 401.936 78.4821 401.159 80.1089 395.088L80.7491 392.699C82.8107 393.722 85.0671 394.591 87.4018 395.217C96.2485 397.587 106.054 396.81 107.681 390.74L108.333 388.305C110.476 389.396 112.863 390.303 115.314 390.959C124.161 393.33 133.97 392.553 135.596 386.484C135.724 386.006 139.136 373.273 139.263 372.796C140.89 366.725 132.784 361.148 123.938 358.778ZM65.0144 380.216C56.9555 378.057 53.7093 374.237 53.832 373.38C54.1587 372.571 58.8848 370.889 66.9356 373.046C74.9888 375.204 78.2354 379.022 78.1153 379.881C77.7916 380.69 73.0758 382.376 65.0144 380.216ZM92.5866 375.868C84.5278 373.708 81.2815 369.888 81.4042 369.031C81.7308 368.222 86.4574 366.541 94.5078 368.698C102.558 370.855 105.808 374.674 105.688 375.532C105.364 376.341 100.646 378.027 92.5866 375.868ZM120.499 371.61C112.446 369.452 109.199 365.634 109.32 364.776C109.643 363.966 114.359 362.28 122.421 364.44C130.479 366.599 133.725 370.419 133.603 371.276C133.276 372.085 128.55 373.767 120.499 371.61Z" fill="#F3F4F6"/>
<path d="M122 366.009C119.401 365.313 117.053 365.65 116.754 366.765C116.456 367.878 118.321 369.345 120.92 370.041C123.518 370.737 125.867 370.399 126.165 369.287C126.464 368.172 124.599 366.705 122 366.009Z" fill="#F3F4F6"/>
<path d="M94.0874 370.266C91.4885 369.57 89.14 369.908 88.8418 371.021C88.5433 372.135 90.408 373.602 93.007 374.299C95.603 374.994 97.9512 374.656 98.2497 373.542C98.5479 372.429 96.6834 370.962 94.0874 370.266Z" fill="#F3F4F6"/>
<path d="M66.5149 374.615C63.9161 373.919 61.5677 374.257 61.2695 375.37C60.971 376.484 62.8358 377.95 65.4348 378.646C68.0308 379.342 70.3788 379.005 70.6774 377.891C70.9755 376.778 69.1109 375.311 66.5149 374.615Z" fill="#F3F4F6"/>
</g>
<g clip-path="url(#clip9)">
<path d="M201.722 137.263L188.231 165.446L189.052 166.868L220.201 169.274C223.833 169.552 227.159 171.226 229.563 173.862L236.458 162.517C240.948 155.128 241.052 145.878 236.728 138.39C232.405 130.902 224.342 126.367 215.698 126.561L202.427 126.859C203.511 130.26 203.298 133.979 201.722 137.263ZM231.127 156.503C232.165 158.302 231.019 160.909 228.565 162.326C226.11 163.743 223.279 163.432 222.241 161.633C221.203 159.835 222.348 157.227 224.803 155.81C227.257 154.393 230.088 154.705 231.127 156.503ZM208.71 165.101C207.074 166.046 205.074 165.645 204.241 164.202C203.409 162.761 204.061 160.825 205.696 159.881C207.331 158.937 209.333 159.34 210.165 160.781C210.998 162.225 210.345 164.157 208.71 165.101ZM236.984 142.936C237.755 144.272 237.496 145.865 236.406 146.495C235.315 147.125 233.806 146.552 233.035 145.216C232.263 143.88 232.522 142.287 233.613 141.657C234.703 141.027 236.213 141.6 236.984 142.936ZM212.669 150.063C210.651 151.228 207.995 150.404 206.736 148.223C205.476 146.042 206.091 143.33 208.109 142.165C210.126 141 212.782 141.824 214.042 144.005C215.301 146.186 214.686 148.898 212.669 150.063ZM224.617 134.74C225.372 136.048 224.482 137.977 222.628 139.048C220.774 140.118 218.659 139.925 217.903 138.616C217.148 137.308 218.038 135.379 219.892 134.309C221.746 133.238 223.862 133.432 224.617 134.74Z" fill="#F3F4F6"/>
<path d="M195.142 134.113C196.121 132.071 196.028 129.677 194.896 127.715C193.903 125.997 192.214 124.792 190.265 124.411C188.316 124.031 186.297 124.514 184.731 125.735L149.527 153.168C145.651 156.189 142.689 159.981 140.689 164.171C142.387 163.642 144.174 163.398 145.969 163.54L179.804 166.153L195.142 134.113Z" fill="#F3F4F6"/>
<path d="M225.606 185.623C226.251 183.745 226.052 181.68 225.06 179.961C223.927 177.999 221.9 176.722 219.643 176.549L145.407 170.813C143.519 170.665 141.658 171.307 140.257 172.581C138.857 173.854 138.039 175.647 138.007 177.541C137.915 182.943 139.239 188.418 142.109 193.389C149.788 206.689 166.098 212.296 180.332 206.525L221.695 189.758C223.533 189.009 224.961 187.502 225.606 185.623Z" fill="#F3F4F6"/>
</g>
<g clip-path="url(#clip10)">
<path d="M247.102 283.67C245.856 286.134 246.843 289.142 249.307 290.388C251.769 291.634 254.777 290.647 256.022 288.184L268.188 264.134L259.521 259.119L247.102 283.67Z" fill="#F3F4F6"/>
<path d="M295.627 219.313C294.343 218.664 292.778 219.178 292.128 220.461L284.209 236.116C284.03 236.47 283.596 236.612 283.242 236.433L281.035 235.316C280.864 235.23 280.736 235.08 280.676 234.899C280.617 234.718 280.631 234.521 280.718 234.35L288.578 218.812C288.905 218.166 288.962 217.414 288.736 216.726C288.51 216.037 288.019 215.465 287.373 215.138C286.722 214.809 285.971 214.752 285.284 214.977C284.596 215.203 284.025 215.694 283.698 216.34L275.838 231.882C275.752 232.053 275.601 232.181 275.42 232.24C275.239 232.3 275.042 232.285 274.872 232.199L272.664 231.082C272.31 230.903 272.168 230.47 272.347 230.116L280.265 214.46C280.914 213.177 280.4 211.611 279.117 210.962C278.497 210.648 277.784 210.593 277.128 210.809C276.472 211.024 275.93 211.49 275.619 212.106L267.035 229.076C264.889 233.317 265.565 238.22 268.316 241.73L266.933 244.465L275.855 248.978L277.238 246.243C281.697 246.38 286.047 244.019 288.193 239.778L296.775 222.811C297.424 221.528 296.91 219.962 295.627 219.313Z" fill="#F3F4F6"/>
<path d="M230.293 230.241C228.817 229.495 227.106 229.365 225.536 229.881C223.965 230.396 222.663 231.514 221.917 232.99C220.501 235.789 221.386 239.202 223.98 240.963L246.34 256.127C248.114 257.331 250.32 257.712 252.395 257.175C252.549 257.135 252.701 257.091 252.852 257.041C254.725 256.426 256.286 255.092 257.181 253.321L292.392 273.696C293.672 274.435 295.2 274.617 296.617 274.196C296.665 274.181 296.713 274.167 296.761 274.151C298.114 273.707 299.238 272.744 299.883 271.468C301.224 268.818 300.162 265.584 297.512 264.244L230.293 230.241Z" fill="#F3F4F6"/>
</g>
<g clip-path="url(#clip11)">
<path d="M273.028 134.547C275.426 136.945 274.613 140.39 273.81 143.796C273.238 146.22 272.673 148.614 273.692 149.259C274.741 149.921 276.602 148.799 277.896 147.814C278.217 146.666 278.686 145.54 279.309 144.461C283.324 137.508 292.215 135.125 299.168 139.14C306.122 143.154 308.504 152.045 304.49 158.999C304.025 159.803 303.495 160.546 302.91 161.225C303.116 161.58 303.407 161.871 303.822 162.048C304.942 162.526 306.703 161.226 308.467 159.925C311.108 157.976 313.753 156.025 316.915 157.313C320.299 158.692 321.323 162.695 321.632 166.564C329.433 150.963 323.82 131.789 308.514 122.953C293.11 114.059 273.545 118.901 264.001 133.679C267.249 132.81 270.802 132.321 273.028 134.547ZM317.471 149.506L319.159 150.211C320.146 150.626 320.611 151.763 320.196 152.751C319.781 153.738 318.644 154.203 317.656 153.788L315.969 153.082C314.981 152.667 314.517 151.53 314.932 150.542C315.347 149.555 316.484 149.091 317.471 149.506ZM308.96 139.737L310.505 138.756C311.408 138.182 312.607 138.449 313.181 139.353C313.755 140.257 313.488 141.455 312.584 142.03L311.04 143.01C310.136 143.585 308.938 143.317 308.363 142.413C307.789 141.51 308.056 140.311 308.96 139.737ZM305.92 124.204C306.99 124.206 307.856 125.076 307.854 126.147L307.854 127.976C307.852 129.047 306.983 129.913 305.912 129.911C304.841 129.909 303.975 129.039 303.977 127.968L303.977 126.139C303.979 125.068 304.849 124.202 305.92 124.204ZM290.026 128.468L291.449 127.317C292.28 126.643 293.5 126.769 294.175 127.6C294.849 128.431 294.723 129.651 293.892 130.326L292.469 131.476C291.638 132.151 290.418 132.024 289.743 131.193C289.069 130.363 289.195 129.142 290.026 128.468ZM276.307 128.308C277.101 127.588 278.329 127.648 279.049 128.442L280.276 129.799C280.996 130.593 280.936 131.82 280.142 132.54C279.348 133.26 278.121 133.201 277.4 132.407L276.173 131.05C275.453 130.256 275.513 129.028 276.307 128.308Z" fill="#F3F4F6"/>
<path d="M315.44 160.905C314.307 160.443 312.539 161.747 310.775 163.049C308.112 165.013 305.454 166.975 302.287 165.623C301.207 165.162 300.446 164.555 299.906 163.868C295.458 166.797 289.558 167.165 284.632 164.32C280.255 161.793 277.69 157.334 277.391 152.642C275.519 153.467 273.478 153.715 271.622 152.542C268.254 150.414 269.135 146.677 270.028 142.895C270.583 140.542 271.145 138.163 270.281 137.299C268.884 135.903 263.363 137.923 261.422 138.492C254.758 153.783 260.498 171.97 275.286 180.508C289.78 188.876 307.956 185.082 318.004 172.295C317.167 169.984 318.853 162.295 315.44 160.905Z" fill="#F3F4F6"/>
</g>
<g clip-path="url(#clip12)">
<path d="M207.063 410.534C204.801 411.394 202.259 412.2 199.441 412.951C199.302 413.968 198.704 415.147 197.72 416.166C195.989 417.959 193.72 418.58 192.652 417.551C191.745 416.673 191.999 414.887 193.16 413.268C192.098 412.905 191.122 412.311 190.312 411.529C189.488 410.731 188.869 409.783 188.475 408.754C186.899 409.969 185.125 410.286 184.217 409.411C183.152 408.382 183.69 406.09 185.423 404.295C186.404 403.279 187.558 402.639 188.568 402.462C189.22 399.619 189.937 397.051 190.716 394.76C189.363 394.684 187.884 394.434 186.301 394.01C181.922 392.837 177.124 390.448 173.321 388.283C165.634 401.212 155.604 429.642 164.527 438.253C173.451 446.865 201.507 435.831 214.155 427.69C209.853 420.744 207.474 414.987 207.063 410.534ZM169.143 421.161C170.878 419.367 173.147 418.748 174.214 419.779C175.282 420.805 174.743 423.098 173.01 424.894C171.279 426.688 169.006 427.309 167.941 426.278C166.874 425.249 167.413 422.956 169.143 421.161ZM173.068 408.66C174.799 406.864 177.07 406.244 178.138 407.275C179.204 408.302 178.664 410.593 176.932 412.39C175.2 414.185 172.931 414.804 171.862 413.775C170.795 412.745 171.335 410.454 173.068 408.66ZM171.122 435.287C169.391 437.081 167.121 437.702 166.052 436.672C164.987 435.642 165.525 433.351 167.257 431.558C168.989 429.762 171.26 429.14 172.327 430.171C173.394 431.202 172.856 433.492 171.122 435.287ZM180.853 399.887C179.121 401.682 176.852 402.301 175.786 401.272C174.717 400.241 175.256 397.951 176.987 396.156C178.72 394.361 180.993 393.741 182.059 394.772C183.125 395.802 182.586 398.092 180.853 399.887ZM181.442 433.032C179.712 434.826 177.441 435.446 176.375 434.417C175.305 433.387 175.846 431.095 177.576 429.302C179.309 427.505 181.582 426.884 182.648 427.915C183.714 428.946 183.175 431.237 181.442 433.032ZM185.367 420.529C183.633 422.323 181.365 422.942 180.297 421.914C179.229 420.883 179.769 418.592 181.5 416.799C183.233 415.002 185.502 414.381 186.569 415.414C187.637 416.443 187.099 418.733 185.367 420.529ZM193.797 428.666C192.068 430.462 189.795 431.082 188.731 430.054C187.661 429.022 188.203 426.733 189.934 424.937C191.664 423.143 193.937 422.521 195.004 423.552C196.071 424.581 195.53 426.872 193.797 428.666ZM206.156 424.305C204.424 426.099 202.151 426.72 201.085 425.689C200.018 424.659 200.557 422.365 202.29 420.573C204.023 418.779 206.292 418.159 207.36 419.187C208.427 420.217 207.887 422.509 206.156 424.305Z" fill="#F3F4F6"/>
<path d="M173.17 383.529C176.984 385.832 182.514 388.829 187.342 390.123C188.917 390.545 190.418 390.785 191.76 390.762C191.931 390.759 192.101 390.753 192.271 390.746C193.562 387.833 194.991 385.556 196.553 383.937C199.489 380.894 202.988 378.735 206.526 377.641C205.413 374.193 201.883 371.409 197.244 370.166C195.432 369.681 193.452 369.43 191.382 369.466C185.931 369.564 178.01 374.124 173.063 377.357C172.014 378.043 171.388 379.219 171.409 380.472C171.431 381.726 172.097 382.881 173.17 383.529Z" fill="#F3F4F6"/>
<path d="M232.316 408.971C232.183 401.608 228.468 395.525 223.632 394.136C222.678 397.648 220.672 401.204 217.668 404.317C216.105 405.936 213.882 407.445 211.019 408.837C211.018 409.007 211.019 409.178 211.022 409.349C211.118 414.8 215.68 422.723 218.911 427.67C219.408 428.43 220.164 428.967 221.019 429.196C221.344 429.283 221.682 429.326 222.027 429.32C223.281 429.298 224.432 428.63 225.081 427.556C228.136 422.499 232.411 414.423 232.316 408.971Z" fill="#F3F4F6"/>
<path d="M199.449 386.732C195.665 390.655 193.286 399.483 192.073 405.265C191.816 406.491 192.209 407.764 193.111 408.636C193.561 409.071 194.106 409.374 194.691 409.53C195.279 409.688 195.906 409.698 196.518 409.546C202.253 408.132 210.987 405.444 214.773 401.522C219.661 396.456 221.404 389.903 219.423 385.49C220.556 384.514 221.671 383.724 222.759 383.127C224.502 382.172 226.178 381.708 227.759 381.758C231.837 381.886 234.228 385.435 234.277 385.509C234.829 386.364 235.97 386.613 236.828 386.064C237.689 385.513 237.94 384.369 237.39 383.508C237.253 383.295 233.979 378.283 227.933 378.061C225.495 377.972 223.011 378.671 220.496 380.149C219.383 380.802 218.264 381.61 217.14 382.568C216.303 381.918 215.344 381.454 214.3 381.174C209.891 379.993 203.982 382.035 199.449 386.732Z" fill="#F3F4F6"/>
</g>
<g clip-path="url(#clip13)">
<path d="M425.861 252.651C422.38 252.128 419.167 250.513 416.622 247.968C414.117 245.463 412.48 242.187 411.944 238.728C408.495 238.209 405.308 236.619 402.752 234.098L402.737 234.084L402.647 233.994C400.17 231.518 398.548 228.257 398.019 224.803C394.499 224.276 391.307 222.664 388.764 220.12C388.123 219.479 387.557 218.784 387.038 218.062L380.525 229.788C379.443 231.733 379.782 234.161 381.358 235.737L414.97 269.349C416.544 270.923 418.974 271.264 420.919 270.182L432.661 263.66C431.909 263.126 431.189 262.542 430.531 261.884C428.015 259.355 426.395 256.136 425.861 252.651Z" fill="#F3F4F6"/>
<path d="M446.939 256.88C446.937 256.209 446.782 255.58 446.521 255.003C453.765 246.255 449.04 228.825 435.441 215.225C421.843 201.627 404.41 196.9 395.663 204.147C395.085 203.887 394.453 203.731 393.78 203.731C391.209 203.73 389.126 205.813 389.123 208.381C389.121 211.426 390.302 214.287 392.451 216.44C392.453 216.442 392.453 216.442 392.455 216.443C394.265 218.253 396.581 219.379 399.085 219.69L400.53 219.784C401.197 219.783 401.824 220.076 402.285 220.537C402.744 220.996 403.038 221.623 403.04 222.289C403.036 225.294 404.244 228.224 406.331 230.311C406.336 230.316 406.343 230.323 406.351 230.33C406.363 230.343 406.379 230.359 406.399 230.379C408.538 232.518 411.389 233.7 414.435 233.705L414.619 233.704C415.246 233.75 415.809 234.022 416.225 234.437C416.68 234.892 416.962 235.52 416.964 236.213C416.96 239.214 418.176 242.153 420.306 244.283C420.307 244.285 420.309 244.287 420.311 244.289C422.468 246.446 425.335 247.634 428.382 247.627C429.037 247.627 429.664 247.924 430.126 248.386C430.583 248.843 430.878 249.462 430.873 250.107L430.885 250.52C430.983 253.415 432.158 256.132 434.224 258.208C436.354 260.338 439.3 261.558 442.3 261.548C444.869 261.54 446.946 259.449 446.939 256.88ZM415.772 216.249C414.234 217.093 412.307 216.534 411.461 214.995C410.615 213.456 411.177 211.53 412.714 210.683C414.251 209.841 419.968 208.319 420.815 209.858C421.659 211.396 417.308 215.405 415.772 216.249ZM421.575 229.094C420.333 227.853 420.334 225.845 421.575 224.604C422.814 223.365 427.88 220.307 429.121 221.548C430.363 222.789 427.304 227.855 426.065 229.094C424.824 230.335 422.816 230.336 421.575 229.094ZM435.674 239.208C434.135 238.362 433.576 236.435 434.42 234.897C435.264 233.361 439.273 229.011 440.811 229.855C442.35 230.701 440.828 236.418 439.986 237.955C439.139 239.492 437.214 240.054 435.674 239.208Z" fill="#F3F4F6"/>
</g>
<g clip-path="url(#clip14)">
<path d="M495.743 144.566L502.983 129.104C504.276 126.342 503.312 123.048 500.733 121.42L492.749 116.376C492.247 118.214 491.325 119.961 489.884 121.403C485.464 125.823 478.273 125.822 473.854 121.403C469.436 116.985 469.436 109.795 473.856 105.375C474.057 105.174 474.29 105.03 474.502 104.848L452.298 90.8197C449.848 89.2717 446.652 89.6277 444.602 91.6784L420.083 116.197C416.935 119.345 416.694 124.31 419.52 127.749L455.71 171.761C455.887 171.975 456.073 172.181 456.268 172.377C457.783 173.892 459.796 174.784 461.934 174.889C464.354 175.008 466.726 174.094 468.441 172.378L494.541 146.278C495.038 145.782 495.446 145.2 495.743 144.566ZM447.64 97.7586C448.03 97.7761 448.392 97.9602 448.64 98.2624L486.399 144.179C486.85 144.729 486.812 145.531 486.307 146.036L476.449 155.894C476.17 155.767 475.886 155.645 475.565 155.608C474.699 155.511 473.889 155.066 473.347 154.375C472.79 153.661 472.541 152.778 472.643 151.888L472.675 151.567C472.883 149.13 472.144 146.653 470.624 144.727C469.11 142.796 466.983 141.554 464.595 141.157L464.111 141.087C463.229 140.987 462.433 140.555 461.889 139.842C461.367 139.179 461.115 138.372 461.168 137.552L461.189 137.362C461.813 132.039 457.985 127.192 452.662 126.563L452.48 126.542C451.659 126.401 450.928 125.967 450.408 125.294C449.867 124.616 449.615 123.726 449.721 122.847C450.026 120.264 449.308 117.72 447.699 115.677C446.105 113.661 443.738 112.341 441.193 112.039C440.301 111.934 439.511 111.479 438.957 110.792C438.403 110.094 438.158 109.219 438.262 108.33C438.328 107.773 438.191 107.258 437.977 106.78L446.595 98.1623C446.872 97.8846 447.252 97.7387 447.64 97.7586ZM462.23 168.903C461.578 168.871 460.967 168.599 460.506 168.139L424.15 123.943C423.292 122.899 423.365 121.391 424.321 120.435L432.852 111.904C434.028 115.103 436.883 117.566 440.5 117.997C441.473 118.109 442.387 118.621 442.993 119.389C443.61 120.172 443.886 121.151 443.769 122.139C443.474 124.597 444.186 127.109 445.705 129.009C447.241 130.98 449.456 132.222 451.946 132.519L452.154 132.545C454.04 132.866 455.39 134.58 455.252 136.495L455.231 136.669C454.941 139.139 455.63 141.583 457.18 143.551C458.634 145.387 460.666 146.594 462.953 146.974L463.426 147.045C464.416 147.161 465.297 147.662 465.917 148.439C466.525 149.209 466.807 150.203 466.691 151.171L466.66 151.512C466.464 153.87 467.159 156.187 468.635 158.077C468.859 158.36 469.098 158.628 469.352 158.881C470.052 159.582 470.866 160.154 471.743 160.601L464.203 168.14C463.682 168.661 462.963 168.94 462.23 168.903Z" fill="#F3F4F6"/>
<path d="M490.825 88.4885C493.494 98.07 486.515 106.463 486.511 106.469C483.272 104.295 478.836 104.633 475.975 107.494C472.724 110.745 472.723 116.033 475.973 119.284C479.224 122.535 484.514 122.535 487.765 119.283C490.726 116.322 490.959 111.686 488.525 108.423C488.58 108.37 498.591 99.4986 496.579 86.8082C496.115 85.2189 494.449 84.3065 492.862 84.7718C491.272 85.2351 490.374 86.8696 490.825 88.4885Z" fill="#F3F4F6"/>
</g>
<g clip-path="url(#clip15)">
<path d="M155.379 475.288L132.02 498.647C131.661 499.006 131.475 499.499 131.503 500.004C131.534 500.508 131.778 500.977 132.176 501.292L167.909 529.467C169.539 530.752 171.874 530.614 173.342 529.146L185.878 516.61C187.347 515.141 187.485 512.807 186.199 511.177L158.024 475.444C157.709 475.046 157.241 474.802 156.736 474.77C156.232 474.743 155.738 474.929 155.379 475.288Z" fill="#F3F4F6"/>
<path d="M114.469 477.202L100.965 474.27C99.3488 473.915 97.7425 474.951 97.3931 476.568C97.0391 478.189 98.07 479.788 99.691 480.139L113.703 483.181C114.003 480.964 114.279 478.827 114.469 477.202Z" fill="#F3F4F6"/>
<path d="M112.93 463.383C112.861 463.414 112.801 463.457 112.749 463.509C112.615 463.644 112.544 463.839 112.572 464.037C112.61 464.311 112.822 464.527 113.094 464.571C118.775 465.494 117.737 472.562 117.737 474.441C117.737 476.204 116.683 483.633 116.248 486.807C116.007 488.559 116.682 490.378 118.03 491.726C119.418 493.113 121.377 493.77 123.321 493.495C124.681 493.303 125.921 492.672 126.867 491.727C127.276 491.318 127.629 490.85 127.917 490.333L142.014 464.851C142.664 450.8 120.429 459.918 112.93 463.383Z" fill="#F3F4F6"/>
<path d="M148.647 462.545C146.702 462.82 145.002 463.99 144.052 465.707L127.557 495.523C127.243 496.089 127.343 496.791 127.799 497.246C128.364 497.811 129.279 497.81 129.843 497.246L153.939 473.151C156.378 470.712 156.378 466.754 153.938 464.314C152.55 462.926 150.591 462.27 148.647 462.545Z" fill="#F3F4F6"/>
</g>
<path d="M382.876 278.638C371.438 278.638 362.039 287.479 361.113 298.686H352.196L348.349 275.517C348.022 273.556 346.201 272.21 344.2 272.552C342.235 272.876 340.907 274.735 341.235 276.701L344.884 298.685H338.822L335.018 283.354C334.743 282.248 333.961 281.336 332.909 280.895C331.852 280.455 330.658 280.536 329.675 281.124L310.441 292.546C308.729 293.561 308.166 295.776 309.184 297.488C310.198 299.199 312.406 299.763 314.125 298.745L329.185 289.803L331.676 299.839C330.396 300.472 329.226 301.33 328.27 302.433C326.199 304.817 325.262 307.976 325.706 311.1L334.469 373.17C335.223 378.513 339.858 382.539 345.253 382.539H365.463C370.859 382.539 375.494 378.513 376.248 373.17L383.427 322.322C395.223 322.026 404.734 312.359 404.734 300.496C404.734 288.443 394.929 278.638 382.876 278.638ZM384.676 287.454C384.676 287.087 384.842 286.742 385.127 286.517C385.412 286.288 385.785 286.203 386.141 286.284C389.036 286.946 391.597 288.457 393.555 290.557C393.801 290.824 393.918 291.19 393.861 291.553C393.809 291.912 393.59 292.229 393.277 292.413L385.324 297.002C385.19 297.08 385.024 297.08 384.891 297.002C384.757 296.925 384.676 296.78 384.676 296.629V287.454H384.676ZM372.201 290.56C374.156 288.461 376.716 286.95 379.611 286.288C379.967 286.207 380.34 286.291 380.625 286.52C380.911 286.746 381.076 287.091 381.076 287.457V296.629C381.076 296.783 380.995 296.928 380.861 297.005C380.727 297.083 380.562 297.083 380.428 297.005L372.479 292.413C372.162 292.229 371.947 291.912 371.894 291.553C371.838 291.19 371.954 290.824 372.201 290.56ZM368.88 296.188C368.985 295.84 369.246 295.558 369.587 295.427C369.925 295.293 370.306 295.322 370.623 295.505L376.586 298.947C375.818 298.777 375.028 298.686 374.226 298.686H368.367C368.473 297.829 368.63 296.99 368.88 296.188ZM346.082 305.899L349.347 325.562H345.492L340.613 305.899H346.082ZM369.105 372.163C368.851 373.966 367.284 375.326 365.463 375.326H345.253C343.432 375.326 341.865 373.966 341.611 372.163L332.848 310.09C332.713 309.145 333.003 308.214 333.563 307.445C333.563 307.445 341.195 338.164 341.397 338.831L345.415 367.306C345.641 368.901 347.007 370.088 348.62 370.088H362.096C363.709 370.088 365.076 368.901 365.301 367.306L370.672 329.25C370.802 328.324 370.524 327.383 369.911 326.676C369.295 325.968 368.404 325.563 367.467 325.563H356.657L353.393 305.899H374.225C375.293 305.899 376.304 306.36 377.001 307.167C377.702 307.97 378.019 309.037 377.867 310.094L369.105 372.163ZM393.555 310.432C391.597 312.531 389.04 314.038 386.148 314.7C385.792 314.781 385.419 314.697 385.134 314.468C384.849 314.242 384.683 313.897 384.683 313.531V313.424L385.011 311.104C385.23 309.561 385.107 308.012 384.683 306.55V304.363C384.683 304.212 384.764 304.067 384.898 303.99C385.032 303.912 385.198 303.912 385.331 303.99L393.277 308.579C393.594 308.762 393.809 309.079 393.861 309.438C393.918 309.801 393.802 310.168 393.555 310.432ZM396.876 304.803C396.767 305.152 396.506 305.43 396.169 305.564C395.83 305.698 395.45 305.67 395.133 305.486L387.127 300.873C386.993 300.795 386.912 300.654 386.912 300.499C386.912 300.344 386.993 300.204 387.127 300.126L395.133 295.505C395.45 295.321 395.83 295.293 396.169 295.427C396.506 295.561 396.771 295.839 396.876 296.188C397.296 297.547 397.521 298.995 397.521 300.495C397.521 301.993 397.296 303.44 396.876 304.803Z" fill="#F3F4F6"/>
<g clip-path="url(#clip16)">
<path d="M298.993 325.929L298.993 325.928L298.992 325.928C296.068 320.866 280.819 324.198 264.929 333.372C249.041 342.545 238.531 354.085 241.452 359.149L241.452 359.149L241.453 359.149L241.453 359.15L241.453 359.15C247.072 368.664 258.595 372.965 270.533 371.152C268.845 372.943 268.061 374.419 268.545 375.256C269.695 377.249 277.535 374.878 286.054 369.96C294.572 365.041 300.545 359.437 299.395 357.445C298.912 356.608 297.241 356.549 294.847 357.115C302.386 347.683 304.423 335.553 298.993 325.93L298.993 325.929L298.993 325.929L298.993 325.929ZM267.143 337.205C280.107 329.72 289.539 327.779 293.517 327.965C294.362 328.004 294.879 328.9 294.491 329.651C292.661 333.189 286.262 340.386 273.3 347.87C260.338 355.354 250.906 357.297 246.928 357.112C246.083 357.072 245.566 356.177 245.954 355.426C247.782 351.888 254.179 344.69 267.143 337.205Z" fill="#F3F4F6"/>
<path d="M253.406 318.665C253.674 318.475 254.443 317.936 255.004 318.225C255.455 318.458 255.953 319.224 256.28 321.097C257.456 327.808 259.465 329.821 262.372 330.725C263.569 331.097 264.818 330.316 265.032 329.081L265.036 329.059L265.074 328.706C265.181 327.731 264.593 326.815 263.664 326.501C262.186 326 261.428 324.834 260.641 320.333C260.064 317.04 258.723 314.948 256.652 314.118C253.799 312.973 251.082 314.875 250.783 315.1C249.798 315.823 249.588 317.209 250.312 318.194C251.038 319.18 252.43 319.395 253.406 318.665Z" fill="#F3F4F6"/>
<path d="M246.476 327.613C247.026 327.248 247.57 327.629 247.826 329.094C248.616 333.605 249.883 335.528 252.022 336.487C253.288 337.054 254.747 336.264 254.95 334.891L254.989 334.63C255.12 333.752 254.688 332.873 253.895 332.475C253.094 332.073 252.681 331.152 252.187 328.33C251.717 325.642 250.591 323.922 248.84 323.219C246.412 322.245 244.13 323.845 243.879 324.029C242.904 324.746 242.701 326.101 243.402 327.086C244.104 328.07 245.474 328.313 246.476 327.613Z" fill="#F3F4F6"/>
<path d="M266.185 316.234C266.686 315.859 267.278 316.25 267.534 317.715C268.324 322.226 269.591 324.15 271.73 325.108C272.996 325.676 274.455 324.885 274.658 323.513L274.697 323.251C274.828 322.373 274.396 321.494 273.603 321.096C272.802 320.694 272.389 319.773 271.895 316.952C271.425 314.263 270.298 312.543 268.548 311.841C266.119 310.866 263.839 312.465 263.586 312.651C262.612 313.367 262.409 314.722 263.11 315.708C263.811 316.692 265.184 316.933 266.185 316.234Z" fill="#F3F4F6"/>
</g>
<g clip-path="url(#clip17)">
<path d="M372.066 149.733C371.371 149.733 370.808 150.296 370.808 150.991C370.808 151.687 371.371 152.25 372.066 152.25C374.74 152.25 380.105 150.077 385.294 147.976C389.089 146.44 393.39 144.698 394.723 144.698C395.418 144.698 395.981 144.135 395.981 143.439C395.981 142.744 395.418 142.181 394.723 142.181C392.988 142.181 389.651 143.496 384.35 145.643C379.849 147.465 374.249 149.733 372.066 149.733Z" fill="#F3F4F6"/>
<path d="M391.095 137.806C391.855 137.851 392.378 137.297 392.408 136.604C392.439 135.909 391.9 135.322 391.206 135.291C389.598 135.243 384.845 136.755 377.29 139.266C370.777 141.432 362.667 144.114 360.589 144.038C359.87 144.001 359.307 144.547 359.277 145.24C359.246 145.935 359.784 146.522 360.479 146.553C360.539 146.555 360.599 146.557 360.663 146.557C363.154 146.557 369.213 144.605 378.084 141.655C383.321 139.915 389.896 137.731 391.095 137.806Z" fill="#F3F4F6"/>
<path d="M383.395 130.853C384.09 130.853 384.653 130.29 384.653 129.594C384.653 128.898 384.09 128.335 383.395 128.335C381.799 128.335 377.592 129.638 370.857 131.763C365.037 133.601 357.793 135.887 355.704 135.887C355.008 135.887 354.445 136.45 354.445 137.146C354.445 137.842 355.008 138.405 355.704 138.405C358.008 138.405 363.5 136.726 371.615 134.164C376.532 132.611 382.106 130.853 383.395 130.853Z" fill="#F3F4F6"/>
<path d="M392.205 152.25C389.624 152.25 386.322 153.723 383.128 155.147C380.771 156.198 378.335 157.285 377.101 157.285C376.405 157.285 375.842 157.848 375.842 158.544C375.842 159.239 376.405 159.802 377.101 159.802C378.871 159.802 381.318 158.711 384.153 157.446C386.969 156.191 390.16 154.768 392.205 154.768C392.901 154.768 393.464 154.205 393.464 153.509C393.464 152.813 392.901 152.25 392.205 152.25Z" fill="#F3F4F6"/>
<path d="M377.101 122.042C349.071 122.042 346.893 137.456 346.893 142.181V152.25C346.893 159.341 352.691 160.82 357.805 162.124C360.93 162.922 364.16 163.745 366.142 165.727C367.575 167.16 369.04 169.172 370.591 171.301C374.399 176.531 378.715 182.458 384.653 182.458C393.244 182.458 402.275 161.497 402.275 152.25V142.181C402.275 132.496 392.65 122.042 377.101 122.042ZM384.653 167.354C381.278 167.354 377.609 162.317 374.661 158.268C372.992 155.977 371.416 153.812 369.701 152.098C366.74 149.137 362.654 148.095 359.049 147.177C352.992 145.631 351.927 144.884 351.927 142.181C351.927 137.639 354.381 127.077 377.101 127.077C389.54 127.077 397.24 134.916 397.24 142.181C397.24 151.295 388.553 167.354 384.653 167.354Z" fill="#F3F4F6"/>
</g>
<g clip-path="url(#clip18)">
<path d="M195.241 60.2435L178.723 52.8989C178.35 54.4882 178.145 56.3379 178.269 58.4083C178.489 62.0684 180.43 65.6467 183.594 68.2264C186.923 70.9398 191.201 72.1549 195.33 71.5599L195.713 71.5047L199.071 69.5661L197.997 67.8076C197.188 66.483 195.744 63.4537 195.241 60.2435Z" fill="#F3F4F6"/>
<path d="M198.287 49.5018L182.651 34.7669C180.173 37.5373 177.598 42.2342 179.487 48.8387L197.254 56.7388L201.173 51.501C200.126 50.9889 199.155 50.3199 198.287 49.5018Z" fill="#F3F4F6"/>
<path d="M235.429 25.407C233.699 24.2643 231.994 23.5169 230.431 23.0455L228.535 41.0034C231.675 43.5456 233.677 47.1398 233.706 47.1914L234.692 49.0008L238.049 47.0622L238.289 46.7579C240.868 43.4795 241.955 39.1676 241.269 34.928C240.618 30.8974 238.489 27.4273 235.429 25.407Z" fill="#F3F4F6"/>
<path d="M212.765 17.3809L217.707 38.2894C217.982 39.4504 218.076 40.6263 217.996 41.7884L224.491 41.0137L226.533 21.6773C221.758 16.7388 216.403 16.6204 212.765 17.3809Z" fill="#F3F4F6"/>
<path d="M193.524 18.6563C193.5 18.6706 193.475 18.6851 193.45 18.6995C193.426 18.7135 193.4 18.7281 193.376 18.7422C188.774 21.3986 184.523 26.1406 183.482 30.0255L201.044 46.5756C203.514 48.9032 207.219 49.335 210.158 47.6381C213.097 45.9412 214.575 42.5172 213.794 39.2144L208.243 15.7301C204.358 14.6893 198.125 16.0001 193.524 18.6563Z" fill="#F3F4F6"/>
</g>
<g clip-path="url(#clip19)">
<path d="M422.783 386.653L406.088 377.014C402.792 375.111 398.617 376.23 396.714 379.526L376.126 415.185C374.223 418.481 375.396 422.688 378.638 424.56L395.333 434.198C398.629 436.101 402.804 434.982 404.707 431.686L425.295 396.027C427.198 392.732 426.079 388.556 422.783 386.653ZM389.227 425.558C387.714 424.685 387.212 422.81 388.085 421.297C388.959 419.785 390.834 419.282 392.346 420.156C393.859 421.029 394.362 422.904 393.488 424.417C392.615 425.93 390.74 426.432 389.227 425.558ZM405.562 423.967L382.383 410.585L398.261 383.085L421.439 396.467L405.562 423.967Z" fill="#F3F4F6"/>
</g>
<g clip-path="url(#clip20)">
<path d="M410.511 28.7587C393.786 24.2771 377.215 31.6874 373.573 45.2769C371.713 52.2196 373.502 59.6769 378.473 65.9993C375.871 68.2485 372.318 70.4378 368.395 70.3661C367.456 70.3503 366.637 70.9964 366.44 71.9148C366.242 72.8332 366.717 73.7611 367.581 74.1308C367.713 74.1863 368.797 74.6435 370.648 75.1393C374.496 76.1705 381.65 77.364 390.372 75.4502C392.52 76.5176 394.846 77.3927 397.303 78.0511C414.028 82.5326 430.6 75.1223 434.241 61.5328C437.882 47.9432 427.236 33.2402 410.511 28.7587ZM387.216 55.0285C385.123 54.4677 383.88 52.3138 384.44 50.2208C385.001 48.1277 387.155 46.8842 389.248 47.445C391.341 48.0059 392.585 50.1597 392.024 52.2528C391.463 54.3458 389.309 55.5893 387.216 55.0285ZM402.383 59.0924C400.29 58.5316 399.047 56.3778 399.607 54.2847C400.168 52.1917 402.322 50.9482 404.415 51.509C406.508 52.0698 407.752 54.2237 407.191 56.3167C406.63 58.4097 404.476 59.6533 402.383 59.0924ZM417.55 63.1564C415.457 62.5956 414.213 60.4417 414.774 58.3487C415.335 56.2557 417.489 55.0121 419.582 55.573C421.675 56.1338 422.919 58.2876 422.358 60.3807C421.797 62.4737 419.643 63.7172 417.55 63.1564Z" fill="#F3F4F6"/>
</g>
<g clip-path="url(#clip21)">
<path d="M340.509 108.567L339.694 109.978C339.019 111.147 337.525 111.547 336.356 110.872L277.802 77.0662C276.633 76.3912 276.232 74.897 276.907 73.7279L277.722 72.3169C278.397 71.1478 279.891 70.7475 281.06 71.4224L339.614 105.229C340.783 105.904 341.183 107.398 340.509 108.567ZM342.488 100.739C341.813 101.908 340.319 102.309 339.15 101.634L284.405 70.0271C283.236 69.3521 282.836 67.8578 283.511 66.6887C292.024 51.9439 309.976 45.9727 325.372 51.9882C325.49 51.4901 325.678 51.0007 325.947 50.5354C327.429 47.9681 330.724 47.0852 333.291 48.5675C335.859 50.0498 336.742 53.3445 335.259 55.9118C334.991 56.3771 334.661 56.7851 334.288 57.1359C347.197 67.4618 351.001 85.9944 342.488 100.739ZM324.161 59.3744C324.531 58.076 323.778 56.7266 322.48 56.3544C322.095 56.2448 312.942 53.7015 304.299 56.8161C296.971 59.4571 292.703 65.5764 292.525 65.8356C291.76 66.9478 292.042 68.4693 293.155 69.2336C293.209 69.2707 293.263 69.3049 293.319 69.3372C294.413 69.9686 295.826 69.6622 296.553 68.6035C296.588 68.5529 300.093 63.5276 305.957 61.4142C313.065 58.8524 321.015 61.0202 321.144 61.0559C322.441 61.424 323.791 60.6716 324.161 59.3744Z" fill="#F3F4F6"/>
</g>
<g clip-path="url(#clip22)">
<path d="M281.444 398.425C279.456 397.278 277.032 397.374 275.118 398.678C273.165 400.01 272.155 402.286 272.529 404.614C273.853 412.856 272.926 417.165 270.44 421.448C267.986 425.721 263.967 429.07 256.921 431.648C254.725 432.505 253.251 434.501 253.075 436.858C252.903 439.168 254.031 441.316 256.019 442.463C265.869 448.15 277.426 446.939 286.021 440.167C290.555 436.595 293.624 431.311 294.44 425.671C296.041 414.602 290.94 403.908 281.444 398.425Z" fill="#F3F4F6"/>
<path d="M353.025 445.358C350.993 440.731 348.154 436.531 344.594 432.964C336.945 425.299 326.664 421.233 315.649 421.517L299.926 421.923C300.154 424.156 300.116 426.447 299.782 428.755C298.966 434.394 295.898 439.678 291.364 443.252C289.539 444.688 287.569 445.863 285.513 446.78L293.052 460.656C296.587 467.159 301.751 472.497 307.986 476.097C310.933 477.799 314.114 479.111 317.44 480.001C322.504 481.351 327.762 481.684 332.983 481.033C331.992 473.676 333.423 466.105 337.24 459.495C340.913 453.133 346.476 448.232 353.025 445.358Z" fill="#F3F4F6"/>
<path d="M356.71 462.392L356.708 462.321C356.626 458.477 356.076 454.742 355.096 451.185C349.91 453.562 345.512 457.503 342.581 462.58C339.524 467.875 338.335 473.924 339.042 479.829C342.438 478.899 345.773 477.543 348.981 475.778C353.861 473.091 356.823 467.961 356.71 462.392Z" fill="#F3F4F6"/>
<path d="M323.153 416.703C332.747 417.267 341.607 421.178 348.416 427.915C346.648 420.399 342.372 413.611 336.145 408.896L334.763 407.85C333.109 406.596 330.944 406.262 328.974 406.955C326.955 407.665 325.44 409.333 324.921 411.419C324.422 413.427 323.834 415.185 323.153 416.703Z" fill="#F3F4F6"/>
<path d="M292.716 469.466C291.718 470.886 290.441 472.348 288.869 473.865C287.322 475.357 286.634 477.503 287.029 479.606C287.366 481.403 288.459 482.935 290.01 483.83C290.23 483.957 291.335 484.431 292.296 484.846C299.623 488.012 307.861 488.202 315.388 485.812C315.354 485.803 315.32 485.795 315.285 485.786C305.948 483.294 298.048 477.553 292.716 469.466Z" fill="#F3F4F6"/>
</g>
<g clip-path="url(#clip23)">
<path d="M320.261 237.123C319.916 239.063 321.093 240.912 323 241.423L342.642 246.686C344.549 247.197 346.492 246.184 347.163 244.332L348.187 241.504L320.788 234.162L320.261 237.123Z" fill="#F3F4F6"/>
<path d="M336.656 229.741C334.274 229.103 332.289 227.463 331.205 225.278L322.771 223.018L321.368 230.905L349.314 238.393L352.042 230.861L343.608 228.601C341.577 229.952 339.038 230.38 336.656 229.741Z" fill="#F3F4F6"/>
<path d="M343.703 219.477C343.067 217.972 341.797 216.868 340.219 216.445C338.64 216.022 336.988 216.344 335.685 217.329C335.264 217.647 334.739 217.731 334.266 217.605L324.213 214.911L323.35 219.761L332.822 222.299C333.319 222.432 333.746 222.796 333.94 223.315C334.534 224.906 335.868 226.118 337.509 226.558C339.149 226.998 340.911 226.615 342.221 225.534C342.648 225.181 343.199 225.08 343.697 225.213L353.169 227.751L354.847 223.119L344.794 220.426C344.32 220.299 343.909 219.963 343.703 219.477Z" fill="#F3F4F6"/>
<path d="M361.626 199.979L360.418 194.754C360.184 193.743 359.416 192.949 358.413 192.68L336.344 186.766C335.341 186.498 334.279 186.802 333.571 187.56L329.912 191.481C327.625 191.015 325.334 192.408 324.723 194.688L323.601 198.875C323.202 200.364 324.09 201.901 325.581 202.301L359.967 211.514C361.458 211.914 362.995 211.027 363.395 209.537L364.516 205.351C365.127 203.07 363.84 200.719 361.626 199.979Z" fill="#F3F4F6"/>
<path d="M324.792 211.654L334.391 214.226C336.386 213 338.777 212.647 341.071 213.262C343.366 213.876 345.259 215.378 346.374 217.437L355.973 220.009L358.004 214.401L325.837 205.781L324.792 211.654Z" fill="#F3F4F6"/>
</g>
<g clip-path="url(#clip24)">
<path d="M255.331 101.359L213.03 98.4902C210.732 98.3344 208.737 100.077 208.581 102.374C208.425 104.671 210.167 106.667 212.465 106.823L254.766 109.691C257.063 109.847 259.059 108.105 259.214 105.807C259.37 103.51 257.628 101.514 255.331 101.359Z" fill="#F3F4F6"/>
<path d="M222.55 86.491C222.707 86.535 222.765 86.4473 222.796 86.4002C224.064 84.4891 226.236 81.6648 229.427 78.9528C227.201 79.2567 225.031 79.8065 222.976 80.5939C222.511 83.0476 222.345 85.3097 222.383 86.2814C222.385 86.3347 222.39 86.4464 222.55 86.491Z" fill="#F3F4F6"/>
<path d="M246.591 81.6142C243.798 83.5216 241.61 86.1449 240.519 88.9823C240.498 89.0375 240.433 89.2058 240.621 89.3575C240.805 89.5066 240.954 89.4096 241.003 89.3775C241.613 88.9792 245.608 86.4862 252.013 85.0636C250.917 84.1654 249.736 83.3433 248.477 82.6133C247.864 82.2574 247.235 81.9244 246.591 81.6142Z" fill="#F3F4F6"/>
<path d="M233.813 74.3448C234.633 74.4003 235.342 73.7813 235.397 72.9619L235.643 69.338C235.69 68.643 236.068 68.0019 236.654 67.6226C238.022 66.7362 238.905 65.2371 239.015 63.6119L239.143 61.7179C239.199 60.8985 238.579 60.1894 237.76 60.1339C236.941 60.0783 236.232 60.6974 236.176 61.5167L236.048 63.4108C236.001 64.1057 235.623 64.7472 235.037 65.1266C233.669 66.0126 232.786 67.512 232.676 69.1368L232.43 72.7608C232.375 73.5801 232.994 74.2892 233.813 74.3448Z" fill="#F3F4F6"/>
<path d="M238.003 73.1387C237.947 73.958 238.566 74.6671 239.385 74.7227C240.205 74.7782 240.914 74.1592 240.969 73.3399L241.014 72.6801C241.061 71.9851 241.439 71.344 242.025 70.9646C243.393 70.0782 244.276 68.5792 244.386 66.954L244.716 62.0958C244.771 61.2765 244.152 60.5674 243.333 60.5118C242.513 60.4563 241.804 61.0753 241.749 61.8946L241.419 66.7532C241.372 67.4478 240.994 68.0892 240.408 68.4687C239.04 69.355 238.158 70.8541 238.047 72.4789L238.003 73.1387Z" fill="#F3F4F6"/>
<path d="M258.041 98.562C258.973 96.1534 258.754 93.4356 257.381 91.179C256.611 89.9116 255.704 88.7092 254.681 87.5869C249.04 88.5309 244.711 90.5076 242.628 91.8678C242.002 92.2767 240.039 92.7079 238.751 91.6698C237.615 90.7514 237.219 89.2774 237.744 87.9147C238.838 85.069 240.837 82.4138 243.395 80.3046C240.913 79.4556 238.289 78.9253 235.617 78.7441C235.33 78.7246 235.043 78.7094 234.756 78.6977C229.917 81.7924 226.842 85.6802 225.275 88.0436C224.623 89.0266 223.083 89.7182 221.748 89.3545C220.385 88.9725 219.468 87.8125 219.412 86.3988C219.382 85.6501 219.458 84.0416 219.72 82.0953C216.839 83.6622 214.331 85.7135 212.372 88.1268C210.708 90.1775 210.123 92.8409 210.721 95.3531L258.041 98.562Z" fill="#F3F4F6"/>
</g>
<g clip-path="url(#clip25)">
<path d="M231.312 481.065C231.02 483.466 231.318 485.955 232.266 488.302L240.513 483.54L231.312 481.065Z" fill="#F3F4F6"/>
<path d="M251.288 496.421L246.518 488.158L244.062 497.36C246.461 497.658 248.946 497.365 251.288 496.421Z" fill="#F3F4F6"/>
<path d="M234.314 491.851C235.872 493.844 237.879 495.347 240.105 496.294L242.562 487.089L234.314 491.851Z" fill="#F3F4F6"/>
<path d="M240.343 469.267L245.114 477.53L247.57 468.328C245.172 468.031 242.686 468.323 240.343 469.267Z" fill="#F3F4F6"/>
<path d="M241.565 479.579L236.794 471.316C234.805 472.872 233.309 474.879 232.368 477.105L241.565 479.579Z" fill="#F3F4F6"/>
<path d="M254.837 494.372C256.826 492.815 258.322 490.809 259.264 488.583L250.066 486.109L254.837 494.372Z" fill="#F3F4F6"/>
<path d="M260.32 484.623C260.612 482.222 260.314 479.733 259.366 477.387L251.118 482.149L260.32 484.623Z" fill="#F3F4F6"/>
<path d="M232.965 460.587C232.687 460.748 233.237 460.41 232.957 460.572C220.697 467.65 216.49 483.4 223.581 495.681C226.757 501.183 231.671 505.07 237.231 507.048C244.079 509.485 251.907 509.025 258.675 505.117C270.935 498.039 275.14 482.288 268.05 470.007C261.122 458.007 245.492 453.355 232.965 460.587ZM255.183 499.07C249.551 502.322 242.908 502.298 237.475 499.591C234.292 498.006 231.525 495.501 229.617 492.196C224.782 483.823 227.243 471.931 236.447 466.617C245.38 461.46 256.849 464.545 262.015 473.491C267.181 482.439 264.116 493.913 255.183 499.07Z" fill="#F3F4F6"/>
<path d="M257.318 473.838C255.759 471.843 253.753 470.341 251.527 469.394L249.07 478.6L257.318 473.838Z" fill="#F3F4F6"/>
<path d="M228.852 458.873C223.823 458.138 218.682 458.911 214.053 461.141L210.307 454.653C209.741 453.673 208.488 453.338 207.508 453.903C206.528 454.469 206.193 455.722 206.758 456.702L210.513 463.206C199.681 470.737 196.242 485.504 202.967 497.152C209.015 507.627 221.353 512.246 232.459 508.988C227.57 506.501 223.323 502.621 220.382 497.528C212.742 484.294 216.608 467.524 228.852 458.873Z" fill="#F3F4F6"/>
</g>
<g clip-path="url(#clip26)">
<path d="M392.179 531.753C389.969 531.759 387.814 530.618 386.631 528.57C381.751 520.117 384.658 509.271 393.11 504.391L399.427 500.744L396.892 495.667L361.1 516.332L388.161 557.266C388.781 558.203 390.022 558.496 390.995 557.935L402.282 551.418C400.236 550.548 398.446 549.033 397.251 546.965C395.874 544.579 396.22 541.665 397.899 539.67C396.481 538.951 395.247 537.829 394.394 536.351C393.54 534.872 393.185 533.241 393.273 531.651C392.595 531.862 392.185 531.922 392.179 531.753Z" fill="#F3F4F6"/>
<path d="M376.87 502.322C376.872 502.321 376.873 502.32 376.874 502.319L395.266 491.7C396.282 491.114 396.63 489.815 396.044 488.799C395.457 487.783 394.158 487.435 393.142 488.021L378.144 496.681L378.712 486.215L385.074 482.542C386.09 481.956 386.438 480.657 385.851 479.641C385.265 478.625 383.966 478.277 382.95 478.863L375.592 483.111C374.97 483.47 374.572 484.119 374.533 484.835L373.751 499.217L356.353 509.262C355.337 509.848 354.989 511.147 355.576 512.163C356.162 513.179 357.461 513.527 358.477 512.941L376.863 502.325C376.866 502.324 376.868 502.323 376.87 502.322Z" fill="#F3F4F6"/>
<path d="M390.31 526.446C390.897 527.462 392.196 527.81 393.212 527.223L432.453 504.567C433.469 503.98 433.817 502.682 433.231 501.666C429.522 495.242 421.279 493.033 414.855 496.742L395.234 508.07C388.81 511.779 386.601 520.022 390.31 526.446Z" fill="#F3F4F6"/>
<path d="M399.628 528.424C397.596 529.597 396.9 532.195 398.073 534.227C399.246 536.259 401.844 536.955 403.876 535.782L434.533 518.082C436.565 516.909 437.261 514.311 436.088 512.279C434.915 510.247 432.317 509.551 430.285 510.724L399.628 528.424Z" fill="#F3F4F6"/>
<path d="M440.949 519.283L401.708 541.939C400.692 542.526 400.344 543.824 400.93 544.84C402.687 547.883 406.592 548.93 409.635 547.173L441.519 528.765C444.561 527.008 445.608 523.103 443.851 520.06C443.264 519.044 441.965 518.696 440.949 519.283Z" fill="#F3F4F6"/>
</g>
<g clip-path="url(#clip27)">
<path d="M320.576 18.1552C318.846 18.0311 317.108 17.9779 315.378 17.8424C312.625 17.6282 309.887 17.2794 307.137 17.0362C299.124 16.323 291.81 18.2101 284.619 21.6863C282.967 22.4854 281.391 23.4061 279.892 24.4462C278.795 25.2076 277.983 25.9542 278.017 26.0339C278.048 26.1068 278.08 26.179 278.08 26.179C278.463 27.0336 278.993 28.0947 279.686 29.2349C280.254 30.1185 280.914 31.0403 281.696 31.9521C281.763 32.0347 282.927 33.4167 284.777 33.8259C286.081 34.1142 287.189 33.738 287.213 33.7268L287.258 33.7078C287.327 33.6821 294.408 30.4312 300.544 28.3955C300.612 28.3697 308.59 25.9961 311.754 25.6763C311.985 25.6391 317.622 24.9381 321.001 22.9872C321.629 22.6247 322.144 22.2392 322.546 21.8302C323.298 21.0694 323.706 19.7705 323.788 19.2227C323.869 18.6748 323.851 18.2179 323.834 18.2124C323.815 18.2065 323.08 18.2766 322.188 18.25C321.65 18.2358 321.112 18.1944 320.576 18.1552Z" fill="#F3F4F6"/>
<path d="M330.375 10.381C329.328 9.78987 327.434 9.30267 326.11 9.47522L326.11 9.47418C325.304 9.57938 324.44 9.71947 323.539 9.90783C320.556 10.5265 317.143 11.6678 314.07 13.7509C312.963 14.4999 312.79 14.3376 313.748 13.408C315.424 11.7846 318.437 9.5022 322.948 8.34739C323.504 8.20898 324.081 8.08666 324.684 7.98551C325.648 7.82099 325.588 7.08132 324.461 6.36453C323.96 6.04708 323.376 5.69612 322.712 5.33053C321.543 4.68662 319.476 4.33701 318.179 4.65198C314.621 5.51463 310.249 7.67449 306.355 12.7398C306.258 12.8582 306.163 12.9814 306.07 13.1066C305.915 13.313 305.843 13.3422 305.91 13.1699C305.944 13.0828 305.987 12.9784 306.039 12.8595C306.777 11.0742 309.368 6.07083 315.779 3.84C317.038 3.4017 317.098 2.80207 315.824 2.40323C315.008 2.14742 314.152 1.90918 313.255 1.69616C311.957 1.38645 309.865 1.57861 308.684 2.19732C305.805 3.70456 302.554 6.29901 299.931 10.7629C299.255 11.9138 298.959 11.8195 299.412 10.5656C300.246 8.26083 302.153 4.7109 306.412 2.02893C307.541 1.31693 307.454 0.742392 306.122 0.67833C305.102 0.629667 304.051 0.619658 302.969 0.654303C301.635 0.697561 299.626 1.36057 298.588 2.20136C296.071 4.23739 293.567 7.33811 292.232 12.0154C291.866 13.2982 291.621 13.282 291.772 11.9559C292.041 9.60055 292.956 5.93963 295.893 2.80536C296.806 1.8319 296.701 1.33313 295.509 1.58708C294.805 1.73709 294.089 1.90784 293.362 2.10247C293.362 2.10247 292.948 2.18525 292.241 2.38413C291.627 2.55743 290.355 3.47719 289.526 4.52253C287.641 6.89583 285.94 10.1216 285.31 14.3782C285.115 15.6978 284.798 15.7287 284.733 14.396C284.631 12.2979 284.936 9.07854 286.996 5.73056C287.696 4.59392 287.41 4.19533 286.234 4.82675C285.772 5.07535 285.302 5.34288 284.825 5.63351C283.685 6.32772 282.261 7.90792 281.723 9.13061C280.758 11.3291 279.963 14.0874 279.642 17.4972C279.517 18.8261 279.287 18.8458 279.183 17.5149C279.064 15.9863 279.041 13.8872 279.44 11.6723C279.678 10.3588 279.241 10.077 278.384 11.1008C277.952 11.6166 277.534 12.1592 277.135 12.7316C276.371 13.8265 275.622 15.8415 275.475 17.167C275.337 18.3986 275.282 19.7478 275.353 21.2008C275.418 22.5335 275.196 22.588 274.932 21.2797C274.848 20.8673 274.771 20.4113 274.71 19.9191C274.546 18.5945 274.175 18.5144 273.814 19.7985C273.23 21.8745 272.871 24.1827 272.823 26.7544C272.823 26.7544 272.791 27.2386 272.846 27.7805C272.902 28.345 273.732 27.9287 274.734 27.0473C275.865 26.0526 277.192 24.9742 277.389 24.8102C277.558 24.669 277.737 24.5419 277.909 24.4039C279.969 22.7552 282.192 21.3507 284.572 20.1998C291.761 16.7242 299.076 14.8365 307.09 15.5497C309.839 15.7945 312.579 16.1422 315.33 16.3576C317.063 16.4918 318.798 16.5436 320.529 16.6697C321.606 16.7486 322.69 16.8286 323.754 16.7155C324.277 16.6592 324.802 16.5708 325.313 16.3831C327.376 15.6313 328.833 14.1889 330.407 12.8433C331.42 11.9781 331.429 10.9711 330.375 10.381Z" fill="#F3F4F6"/>
</g>
<g clip-path="url(#clip28)">
<path d="M273.28 528.964C270.893 533.098 269.684 537.589 269.547 542.047L295.106 542.048L282.136 519.582C278.603 521.901 275.538 525.052 273.28 528.964ZM275.896 538.448C275.121 538.384 274.369 538.197 273.622 537.984C273.29 537.89 272.432 537.572 272.566 537.071C272.699 536.578 273.607 536.714 273.937 536.808C274.477 536.961 274.994 537.095 275.555 537.142C276.003 537.178 276.807 537.447 276.938 537.953C277.079 538.492 276.187 538.472 275.896 538.448ZM288.539 535.745C289.448 536.27 289.76 537.431 289.235 538.339C288.711 539.248 287.55 539.558 286.641 539.034C285.733 538.51 285.421 537.349 285.946 536.44C286.469 535.531 287.631 535.221 288.539 535.745ZM282.575 535.595C281.786 536.961 280.041 537.427 278.675 536.639C277.31 535.851 276.842 534.104 277.629 532.739C278.417 531.375 280.163 530.907 281.529 531.696C282.895 532.484 283.363 534.229 282.575 535.595ZM282.555 524.208C283.464 524.733 283.776 525.894 283.251 526.803C282.726 527.711 281.566 528.022 280.656 527.497C279.749 526.973 279.437 525.812 279.961 524.904C280.485 523.996 281.646 523.683 282.555 524.208ZM275.368 529.564C273.957 528.749 276.147 528.65 276.822 529.04C278.233 529.855 276.043 529.953 275.368 529.564Z" fill="#F3F4F6"/>
<path d="M311.074 516.906L313.587 512.553C303.125 507.006 290.967 507.411 281.154 512.689L283.669 517.044C291.974 512.628 302.222 512.282 311.074 516.906Z" fill="#F3F4F6"/>
<path d="M330.895 539.959L335.924 539.959C335.59 528.821 329.861 518.089 319.826 511.802L317.313 516.155C325.742 521.509 330.566 530.557 330.895 539.959Z" fill="#F3F4F6"/>
<path d="M313.335 573.455L310.82 569.098C302.605 573.269 292.587 573.512 283.911 568.979L281.398 573.332C291.686 578.787 303.61 578.483 313.335 573.455Z" fill="#F3F4F6"/>
<path d="M326.813 544.481C326.585 548.971 325.329 553.474 322.93 557.63C320.431 561.957 316.988 565.405 313.013 567.87L315.528 572.227C320.243 569.333 324.326 565.26 327.281 560.142C330.137 555.195 331.612 549.827 331.842 544.479L326.813 544.481Z" fill="#F3F4F6"/>
<path d="M268.146 541.966C268.295 537.289 269.559 532.583 272.056 528.258C274.456 524.102 277.727 520.763 281.503 518.319L278.988 513.963C274.472 516.836 270.56 520.797 267.705 525.743C264.749 530.862 263.264 536.433 263.116 541.965L268.146 541.966Z" fill="#F3F4F6"/>
<path d="M279.222 572.075L281.735 567.723C273.473 562.475 268.674 553.679 268.178 544.479L263.148 544.48C263.655 555.415 269.355 565.894 279.222 572.075Z" fill="#F3F4F6"/>
<path d="M310.367 518.13C301.928 513.742 292.188 514.081 284.296 518.297L297.284 540.792L310.367 518.13ZM291.386 523.288C290.021 522.5 289.553 520.754 290.341 519.39C291.129 518.024 292.875 517.556 294.24 518.344C295.605 519.133 296.073 520.878 295.285 522.244C294.497 523.61 292.751 524.076 291.386 523.288ZM296.155 532.06C295.248 531.536 294.936 530.376 295.46 529.467C295.985 528.559 297.146 528.248 298.054 528.772C298.962 529.296 299.274 530.458 298.75 531.366C298.224 532.274 297.064 532.585 296.155 532.06ZM299.623 525.902C299.534 525.334 299.295 524.929 298.894 524.525C298.493 524.12 298.69 523.559 299.198 523.387C299.793 523.187 300.484 523.412 300.914 523.848C301.537 524.477 301.94 525.227 302.077 526.102C302.267 527.3 299.79 526.961 299.623 525.902ZM302.706 522.476C301.798 521.952 301.486 520.792 302.011 519.882C302.535 518.974 303.697 518.664 304.605 519.188C305.513 519.712 305.826 520.873 305.301 521.782C304.776 522.691 303.614 523.001 302.706 522.476Z" fill="#F3F4F6"/>
<path d="M321.705 556.923C323.963 553.011 325.162 548.782 325.403 544.562L299.461 544.562L312.241 566.699C316.033 564.349 319.318 561.056 321.705 556.923ZM322.469 548.008C323.876 548.821 321.666 548.808 321.04 548.447C319.635 547.635 321.844 547.648 322.469 548.008ZM307.042 551.022C306.134 550.498 305.822 549.337 306.347 548.427C306.872 547.52 308.033 547.209 308.941 547.732C309.851 548.258 310.161 549.419 309.637 550.326C309.111 551.236 307.951 551.547 307.042 551.022ZM313.477 550.319C314.504 550.912 312.055 550.629 311.622 550.378C310.595 549.786 313.044 550.069 313.477 550.319ZM309.408 555.179C307.986 554.358 310.105 553.903 310.935 554.382C312.359 555.202 310.237 555.658 309.408 555.179ZM311.361 561.804C310.452 561.279 310.141 560.119 310.666 559.209C311.19 558.302 312.352 557.992 313.259 558.516C314.168 559.041 314.48 560.202 313.956 561.109C313.431 562.019 312.27 562.329 311.361 561.804ZM315.941 555.783C314.577 554.995 314.109 553.25 314.897 551.886C315.686 550.52 317.431 550.052 318.795 550.84C320.161 551.628 320.629 553.374 319.841 554.74C319.05 556.104 317.306 556.571 315.941 555.783Z" fill="#F3F4F6"/>
<path d="M282.441 566.5L295.107 544.562L269.583 544.562C270.096 553.244 274.64 561.523 282.441 566.5ZM279.983 562.743C278.566 561.926 280.738 561.725 281.457 562.14C282.874 562.958 280.702 563.159 279.983 562.743ZM287.84 548.225C288.749 548.749 289.061 549.91 288.536 550.819C288.012 551.728 286.85 552.037 285.942 551.513C285.034 550.989 284.722 549.828 285.246 548.919C285.771 548.011 286.933 547.701 287.84 548.225ZM281.389 549.629C282.812 550.451 280.704 550.966 279.849 550.472C278.427 549.651 280.534 549.136 281.389 549.629ZM281.133 552.37C282.499 553.158 282.967 554.903 282.178 556.269C281.39 557.634 279.645 558.102 278.279 557.313C276.914 556.525 276.447 554.779 277.234 553.415C278.023 552.049 279.768 551.582 281.133 552.37ZM275.217 546.426C276.125 546.95 276.438 548.111 275.913 549.02C275.388 549.928 274.227 550.238 273.318 549.714C272.411 549.19 272.099 548.029 272.623 547.121C273.147 546.213 274.309 545.902 275.217 546.426Z" fill="#F3F4F6"/>
<path d="M310.045 567.922L297.283 545.818L284.617 567.757C292.83 572.025 302.272 571.82 310.045 567.922ZM290.142 566.354C289.235 565.83 288.924 564.669 289.447 563.761C289.973 562.851 291.134 562.541 292.041 563.065C292.95 563.59 293.263 564.751 292.738 565.661C292.214 566.568 291.051 566.879 290.142 566.354ZM295.203 560.158C293.839 559.371 293.37 557.623 294.157 556.259C294.945 554.894 296.691 554.426 298.057 555.215C299.423 556.003 299.89 557.749 299.102 559.114C298.314 560.478 296.569 560.947 295.203 560.158ZM295.601 565.244C294.578 564.653 297.025 564.95 297.453 565.197C298.475 565.786 296.03 565.491 295.601 565.244ZM302.824 567.083C301.915 566.559 301.603 565.398 302.127 564.491C302.653 563.581 303.815 563.271 304.722 563.795C305.631 564.32 305.943 565.481 305.418 566.39C304.894 567.298 303.733 567.608 302.824 567.083Z" fill="#F3F4F6"/>
<path d="M316.605 517.379L303.521 540.04L329.497 540.04C329.203 531.098 324.626 522.494 316.605 517.379ZM321.025 524.283C321.935 524.809 322.246 525.969 321.721 526.877C321.196 527.786 320.036 528.097 319.126 527.572C318.219 527.048 317.907 525.887 318.432 524.978C318.955 524.069 320.116 523.759 321.025 524.283ZM318.387 520.709C319.81 521.53 317.726 522.144 316.829 521.626C315.406 520.804 317.49 520.191 318.387 520.709ZM310.584 536.659C309.22 535.871 308.75 534.125 309.538 532.76C310.326 531.396 312.071 530.928 313.438 531.716C314.803 532.505 315.271 534.25 314.483 535.615C313.695 536.98 311.95 537.448 310.584 536.659ZM317.353 530.786C316.749 530.875 316.048 530.589 315.777 530.022C315.496 529.435 314.959 529.02 314.479 528.6C314.076 528.247 313.856 527.644 314.37 527.265C314.857 526.907 315.672 527.002 316.116 527.391C316.889 528.068 317.663 528.743 318.113 529.686C318.382 530.246 317.872 530.711 317.353 530.786ZM316.489 535.419C315.067 534.598 317.138 533.93 318.059 534.462C319.482 535.281 317.41 535.951 316.489 535.419ZM321.27 535.133C320.362 534.608 320.05 533.448 320.575 532.539C321.099 531.63 322.262 531.32 323.169 531.844C324.078 532.369 324.389 533.53 323.865 534.439C323.34 535.347 322.179 535.657 321.27 535.133ZM324.583 536.092C323.56 535.502 326.008 535.797 326.436 536.044C327.46 536.634 325.012 536.34 324.583 536.092Z" fill="#F3F4F6"/>
</g>
<g clip-path="url(#clip29)">
<path d="M228.54 529.42C224.472 527.245 220.323 527.364 216.539 529.763C215.554 530.388 214.676 531.084 213.927 531.833C212.038 533.722 211.184 535.734 210.829 537.453C210.486 537.101 209.727 536.376 208.509 535.48C208.651 535.355 208.868 535.158 209.134 534.893C210.451 533.576 212.661 530.881 212.661 527.635C212.661 523.206 208.508 519.783 208.331 519.639L207.482 518.95L206.633 519.639C206.599 519.667 206.281 519.927 205.83 520.378C204.513 521.695 202.304 524.39 202.304 527.635C202.304 529.636 203.151 531.429 204.096 532.81C202.201 531.863 199.892 530.927 197.133 530.158C196.417 529.958 195.674 530.377 195.474 531.093C195.274 531.809 195.693 532.552 196.409 532.751C204.425 534.987 208.352 538.768 208.961 539.395C207.249 539.758 205.274 540.654 203.38 542.549C203.38 542.549 203.379 542.549 203.379 542.55C202.631 543.298 201.893 544.134 201.268 545.119C198.868 548.902 198.729 553.031 200.904 557.098C202.916 560.861 206.501 563.772 209.163 565.561C211.991 567.462 215.881 568.868 219.578 569.331C221.686 569.594 223.634 569.539 225.373 569.171C227.497 568.722 229.252 567.813 230.592 566.473C231.877 565.188 232.722 563.573 233.118 561.655C235.036 561.259 236.65 560.413 237.935 559.128C239.275 557.788 240.182 556.032 240.632 553.908C240.999 552.169 241.052 550.218 240.789 548.11C240.326 544.414 238.915 540.518 237.014 537.689C235.224 535.028 232.301 531.432 228.54 529.42ZM227.905 530.607C226.21 529.701 224.502 529.242 222.819 529.229C224.502 529.242 226.211 529.701 227.905 530.607Z" fill="#F3F4F6"/>
</g>
</g>
<defs>
<clipPath id="clip0">
<rect width="580" height="580" fill="white"/>
</clipPath>
<clipPath id="clip1">
<rect width="87.5086" height="87.5086" fill="white" transform="translate(15.5688 184.989) rotate(-30)"/>
</clipPath>
<clipPath id="clip2">
<rect width="88.2083" height="89.4166" fill="white" transform="translate(1.2085 245.292)"/>
</clipPath>
<clipPath id="clip3">
<rect width="108.75" height="108.75" fill="white" transform="translate(503.021 257.375) rotate(15)"/>
</clipPath>
<clipPath id="clip4">
<rect width="100.98" height="100.98" fill="white" transform="translate(506.032 134.125) rotate(30)"/>
</clipPath>
<clipPath id="clip5">
<rect width="114.436" height="114.436" fill="white" transform="translate(101.91 233.17) rotate(-4.62047)"/>
</clipPath>
<clipPath id="clip6">
<rect width="112.571" height="112.571" fill="white" transform="translate(404.792 396.469) rotate(-15)"/>
</clipPath>
<clipPath id="clip7">
<rect width="95.6658" height="95.6657" fill="white" transform="translate(397.542 289.385) rotate(-15)"/>
</clipPath>
<clipPath id="clip8">
<rect width="92.4705" height="92.4705" fill="white" transform="translate(56.5581 333.5) rotate(15)"/>
</clipPath>
<clipPath id="clip9">
<rect width="113.606" height="113.606" fill="white" transform="translate(209.553 88.2084) rotate(60)"/>
</clipPath>
<clipPath id="clip10">
<rect width="79.6346" height="79.6346" fill="white" transform="translate(216.089 226.047) rotate(-18.1681)"/>
</clipPath>
<clipPath id="clip11">
<rect width="66.4583" height="66.4583" fill="white" transform="translate(279.729 106.333) rotate(30)"/>
</clipPath>
<clipPath id="clip12">
<rect width="78.672" height="78.672" fill="white" transform="translate(171.309 361.227) rotate(15)"/>
</clipPath>
<clipPath id="clip13">
<rect width="80.6801" height="80.6801" fill="white" transform="translate(419.55 174) rotate(45)"/>
</clipPath>
<clipPath id="clip14">
<rect width="92.2283" height="92.2283" fill="white" transform="translate(468.005 56.412) rotate(45)"/>
</clipPath>
<clipPath id="clip15">
<rect width="94.7015" height="94.7015" fill="white" transform="translate(78.5415 492.297) rotate(-45)"/>
</clipPath>
<clipPath id="clip16">
<rect width="68.875" height="68.875" fill="white" transform="translate(223.021 329.958) rotate(-30)"/>
</clipPath>
<clipPath id="clip17">
<rect width="60.4167" height="60.4167" fill="white" transform="translate(344.375 122.042)"/>
</clipPath>
<clipPath id="clip18">
<rect width="68.6277" height="68.6277" fill="white" transform="translate(158.292 26.4315) rotate(-30)"/>
</clipPath>
<clipPath id="clip19">
<rect width="54.9009" height="54.9009" fill="white" transform="translate(390.663 368.108) rotate(30)"/>
</clipPath>
<clipPath id="clip20">
<rect width="62.8077" height="62.8077" fill="white" transform="translate(381.172 16.9167) rotate(15)"/>
</clipPath>
<clipPath id="clip21">
<rect width="72.5" height="72.5" fill="white" transform="translate(306.917 21.75) rotate(30)"/>
</clipPath>
<clipPath id="clip22">
<rect width="105.295" height="105.295" fill="white" transform="translate(289.867 371.9) rotate(30)"/>
</clipPath>
<clipPath id="clip23">
<rect width="56.2476" height="56.2476" fill="white" transform="translate(320.266 182.458) rotate(15)"/>
</clipPath>
<clipPath id="clip24">
<rect width="50.75" height="50.75" fill="white" transform="translate(211.646 57.1709) rotate(3.87935)"/>
</clipPath>
<clipPath id="clip25">
<rect width="69.9358" height="69.9358" fill="white" transform="matrix(0.866025 -0.500001 0.499999 0.866026 185.375 466.682)"/>
</clipPath>
<clipPath id="clip26">
<rect width="72.5" height="72.5001" fill="white" transform="translate(348 499.042) rotate(-30)"/>
</clipPath>
<clipPath id="clip27">
<rect width="58.8181" height="58.8181" fill="white" transform="translate(259.792 5.24243) rotate(-30)"/>
</clipPath>
<clipPath id="clip28">
<rect width="72.5" height="72.5001" fill="white" transform="translate(285.167 491.792) rotate(30)"/>
</clipPath>
<clipPath id="clip29">
<rect width="50.1028" height="50.1028" fill="white" transform="matrix(0.707107 -0.707106 0.707107 0.707106 181.122 545.087)"/>
</clipPath>
</defs>
</svg>
