<svg width="180" height="48" viewBox="0 0 180 48" fill="none" xmlns="http://www.w3.org/2000/svg">
<path d="M34.9986 47.9999H13.0013C5.81721 47.9999 0 42.1827 0 34.9986V13.0013C0 5.81722 5.81721 0 13.0013 0H34.9986C42.1827 0 47.9999 5.81722 47.9999 13.0013V34.9986C47.9681 42.1827 42.1509 47.9999 34.9986 47.9999Z" fill="#009FE3"/>
<path d="M39.8622 23.4279C39.6396 23.4597 39.4171 23.4597 39.1946 23.4597C36.143 23.4597 33.6635 20.9802 33.6635 17.9286C33.6635 16.1167 34.5536 14.4955 35.9204 13.4783C35.5072 13.0014 35.0304 12.5246 34.5536 12.1114C34.3628 11.9207 34.1403 11.7617 33.9496 11.6028C33.8224 11.5074 33.6635 11.3802 33.5363 11.2849C33.5045 11.2531 33.4728 11.2213 33.4092 11.1895C33.2502 11.0624 33.0595 10.9352 32.9006 10.8399C32.7098 10.7127 32.5191 10.5856 32.3284 10.4584C32.1059 10.3312 31.8516 10.1723 31.5973 10.0452C31.4065 9.9498 31.2476 9.85442 31.0569 9.75906C30.8979 9.6637 30.739 9.60012 30.5483 9.53654C30.4847 9.50475 30.3893 9.47297 30.3257 9.44118C30.135 9.34582 29.9443 9.28224 29.7536 9.21866C29.531 9.1233 29.3403 9.05974 29.1178 8.99616H29.086C28.8635 8.93258 28.641 8.83722 28.3867 8.77364C28.1642 8.71006 27.9416 8.64648 27.7191 8.5829C27.6873 8.5829 27.6238 8.55112 27.592 8.55112C27.4012 8.51933 27.1787 8.45575 26.988 8.42396C26.988 8.42396 26.988 8.42396 26.9562 8.42396C26.7655 8.39217 26.6065 8.36039 26.4158 8.3286C26.3205 8.3286 26.2569 8.29682 26.1615 8.29682C25.939 8.26503 25.7165 8.23325 25.494 8.20146C25.2397 8.16967 24.9854 8.16967 24.7628 8.13788C24.5085 8.13788 24.2542 8.10608 23.9999 8.10608C19.6132 8.10608 15.6397 9.88622 12.7788 12.7471C12.2384 13.2875 11.7297 13.8597 11.2847 14.4637C11.1258 14.6544 10.9986 14.8769 10.8397 15.0994C10.7761 15.1948 10.7125 15.322 10.6172 15.4173C10.4264 15.7034 10.2675 15.9895 10.1085 16.2756C9.63173 17.1339 9.25028 18.024 8.9324 18.9776C8.86882 19.2001 8.80524 19.4226 8.74167 19.6452C8.36021 21.012 8.1377 22.4743 8.1377 24.0001C8.1377 24.1908 8.1377 24.3816 8.1377 24.5405C8.1377 24.7312 8.1377 24.8902 8.16949 25.0809C8.20127 25.3988 8.23306 25.7167 8.26485 26.0345C8.29663 26.1617 8.29664 26.2888 8.32843 26.416C8.32843 26.5114 8.36021 26.6067 8.36021 26.7021C8.39199 26.8292 8.392 26.9882 8.42379 27.1153C8.45557 27.3379 8.51915 27.5921 8.58273 27.8147C8.61451 27.9418 8.6463 28.069 8.67809 28.1643C8.77345 28.514 8.86881 28.8637 8.99597 29.2133C9.05954 29.3723 9.12312 29.5312 9.1867 29.6902C9.25027 29.8491 9.31385 30.008 9.37743 30.167C9.441 30.3259 9.50458 30.4849 9.59995 30.6438C9.66352 30.8027 9.72709 30.9617 9.82246 31.0888C9.94961 31.3749 10.1085 31.661 10.2675 31.9153C10.2675 31.9471 10.2993 31.9471 10.2993 31.9789L8.29664 38.1776C8.16948 38.6226 8.26485 39.0994 8.61452 39.4173C8.9324 39.7352 9.40921 39.8623 9.85425 39.7352L16.0529 37.7325C16.0847 37.7325 16.0847 37.7643 16.1165 37.7643C16.4026 37.9233 16.6569 38.0822 16.943 38.2094C17.1019 38.2729 17.2609 38.3683 17.388 38.4319C17.5152 38.4954 17.6741 38.559 17.833 38.6226H17.8648C18.0238 38.6862 18.1827 38.7498 18.3417 38.8133C18.5006 38.8769 18.6595 38.9405 18.8185 39.0041C18.9456 39.0358 19.041 39.0994 19.1681 39.1312C19.3907 39.1948 19.645 39.2902 19.8993 39.3537C20.0264 39.3855 20.1218 39.4173 20.2489 39.4491C20.694 39.5445 21.1708 39.6398 21.6158 39.7352C21.743 39.767 21.8701 39.767 22.0291 39.7988C22.3469 39.8305 22.6648 39.8623 22.9827 39.8941C23.1734 39.8941 23.3324 39.9259 23.5231 39.9259C23.7138 39.9259 23.8728 39.9259 24.0635 39.9259C32.837 39.9259 39.9575 32.8054 39.9575 24.0319V23.9683C39.8622 23.7776 39.8622 23.6186 39.8622 23.4279ZM17.8013 26.0663C16.8158 26.0663 15.9893 25.2398 15.9893 24.2544C15.9893 23.269 16.8158 22.4425 17.8013 22.4425C18.7867 22.4425 19.6132 23.269 19.6132 24.2544C19.6132 25.2398 18.8185 26.0663 17.8013 26.0663ZM23.9999 26.0663C23.0145 26.0663 22.188 25.2398 22.188 24.2544C22.188 23.269 23.0145 22.4425 23.9999 22.4425C25.0171 22.4425 25.8118 23.269 25.8118 24.2544C25.8118 25.2398 24.9854 26.0663 23.9999 26.0663ZM30.1668 26.0663C29.1814 26.0663 28.3549 25.2398 28.3549 24.2544C28.3549 23.269 29.1814 22.4425 30.1668 22.4425C31.1522 22.4425 31.9787 23.269 31.9787 24.2544C31.9787 25.2398 31.1522 26.0663 30.1668 26.0663Z" fill="white"/>
<path d="M75.3847 30.3629L75.297 30.2752L74.157 28.9818L74.0913 28.916C74.0693 28.8941 74.0474 28.8722 74.0255 28.8722C73.9378 28.8064 73.8063 28.7625 73.6747 28.7625C73.5432 28.7625 73.4117 28.8064 73.324 28.8722C73.324 28.8722 73.324 28.8722 73.3021 28.8722C73.2801 28.8941 73.2582 28.916 73.2363 28.9379C72.3155 29.7052 71.4825 30.2752 70.759 30.6698C69.9479 31.0863 68.9614 31.3056 67.8652 31.3056C65.936 31.3056 64.3795 30.604 63.1957 29.1791C62.0119 27.7541 61.4419 25.8907 61.4419 23.5888C61.4419 21.2869 62.0338 19.4454 63.2176 18.0423C64.4014 16.6393 65.9799 15.9378 67.9748 15.9378C68.9614 15.9378 69.8602 16.1131 70.6933 16.4639C71.3948 16.7489 72.1621 17.2312 72.9951 17.9108C73.1047 17.9985 73.2363 18.0423 73.3897 18.0423C73.5651 18.0423 73.7186 17.9766 73.8282 17.867C73.8501 17.845 73.872 17.8231 73.872 17.8012L75.012 16.4639C75.0339 16.442 75.0559 16.4201 75.0559 16.3981C75.1436 16.2885 75.1874 16.157 75.1874 16.0035C75.1874 15.8281 75.1216 15.6747 75.012 15.5651L74.9901 15.5432C74.9682 15.5212 74.9463 15.4993 74.9243 15.4993C73.894 14.6662 72.8855 14.0743 71.899 13.6797C70.759 13.2193 69.4656 13.0001 68.0406 13.0001C64.9714 13.0001 62.5161 13.9866 60.7184 15.9597C58.9208 17.9327 58 20.4758 58 23.5888C58 26.7237 58.8988 29.2887 60.7184 31.2617C62.5161 33.2567 64.9276 34.2432 67.9529 34.2432C69.4656 34.2432 70.8248 33.9801 72.0305 33.4321C73.0828 32.9717 74.179 32.2263 75.3189 31.2398C75.3409 31.2179 75.3628 31.196 75.3847 31.174C75.4066 31.1521 75.4066 31.1521 75.4285 31.1302C75.5162 31.0206 75.5601 30.889 75.5601 30.7356C75.5162 30.5821 75.4724 30.4506 75.3847 30.3629Z" fill="#142630"/>
<path d="M88.2535 20.7168C87.3546 19.8179 86.0831 19.3576 84.4608 19.3576C82.6413 19.3576 81.2382 19.9933 80.2517 21.2429V14.4469C80.2517 14.4249 80.2517 14.403 80.2517 14.403C80.2517 14.2934 80.2078 14.1838 80.1421 14.118C80.1201 14.0961 80.0982 14.0742 80.0763 14.0523C80.0544 14.0303 80.0325 14.0084 80.0105 14.0084C79.9009 13.9426 79.7913 13.8988 79.6598 13.8988H77.7525C77.621 13.8988 77.4894 13.9426 77.4017 14.0084C77.4017 14.0084 77.4017 14.0084 77.3798 14.0084C77.3579 14.0303 77.336 14.0523 77.3141 14.0742C77.2044 14.1838 77.1387 14.2934 77.1387 14.4469C77.1387 14.4688 77.1387 14.4907 77.1387 14.5126V33.6292C77.1387 33.8265 77.2264 34.0019 77.3579 34.1115C77.4675 34.1992 77.599 34.265 77.7525 34.265H79.6598C79.8132 34.265 79.9448 34.2211 80.0325 34.1335C80.0544 34.1115 80.0763 34.1115 80.0982 34.0896C80.1202 34.0677 80.1201 34.0677 80.1421 34.0458C80.2078 33.9581 80.2517 33.8704 80.2736 33.7608V25.4959C80.2736 24.5313 80.5805 23.7202 81.1944 23.0844C81.8082 22.4487 82.5755 22.1417 83.5182 22.1417C84.4608 22.1417 85.2062 22.4267 85.7324 22.9967C86.2585 23.5667 86.4997 24.3779 86.4997 25.4082V33.6292C86.4997 33.8046 86.5873 33.9581 86.7189 34.0677C86.8285 34.1554 86.96 34.2211 87.1135 34.2211H89.0208C89.1742 34.2211 89.3058 34.1773 89.3935 34.0896C89.4154 34.0677 89.4373 34.0677 89.4592 34.0458C89.4811 34.0238 89.4811 34.0238 89.5031 34.0019C89.5688 33.9142 89.6127 33.8265 89.6346 33.7169C89.6346 33.695 89.6346 33.6512 89.6346 33.6292V24.3779C89.6127 22.8433 89.1742 21.6375 88.2535 20.7168Z" fill="#142630"/>
<path d="M102.832 20.2565C101.78 19.3576 100.267 18.9192 98.3382 18.9192C95.9706 18.9192 93.9537 19.7961 92.2876 21.5718C92.2656 21.5938 92.2437 21.6157 92.2218 21.6376L92.1999 21.6595C92.1341 21.7472 92.1122 21.8349 92.0903 21.9445V21.9664C92.0903 21.9884 92.0903 22.0103 92.0903 22.0322C92.0903 22.0541 92.0903 22.0541 92.0903 22.0761C92.0903 22.098 92.0903 22.098 92.0903 22.1199C92.1122 22.2514 92.178 22.383 92.2656 22.4707C92.2876 22.4926 92.2876 22.4926 92.3095 22.5145L93.3618 23.501C93.3837 23.5229 93.3837 23.523 93.4056 23.5449C93.5152 23.6326 93.6468 23.6983 93.8002 23.6983C93.9537 23.6983 94.0852 23.6545 94.1729 23.5668C94.1948 23.5449 94.2168 23.5449 94.2168 23.523C94.9183 22.8653 95.5321 22.4049 96.0802 22.098C96.7379 21.7472 97.5052 21.5718 98.3821 21.5718C99.3028 21.5718 100.026 21.7911 100.552 22.2076C101.079 22.646 101.364 23.238 101.364 24.0272V24.5533L98.0752 25.1452C96.0583 25.5179 94.4798 26.066 93.3179 26.8333C92.1999 27.5567 91.6299 28.6748 91.6299 30.1875C91.6299 31.5247 92.1122 32.5332 93.0549 33.2347C93.9975 33.9143 95.2471 34.2651 96.8036 34.2651C99.0178 34.2651 100.618 33.5636 101.561 32.1824V33.2786C101.583 33.432 101.67 33.5855 101.78 33.6732C101.89 33.7609 102.021 33.8047 102.175 33.8047H103.775C103.929 33.8047 104.06 33.7609 104.148 33.6732C104.17 33.6512 104.192 33.6293 104.214 33.6293C104.235 33.6074 104.235 33.6074 104.257 33.5855C104.323 33.4978 104.367 33.4101 104.389 33.3005C104.389 33.2786 104.389 33.2566 104.389 33.2347V33.2128V24.0052C104.433 22.361 103.885 21.1553 102.832 20.2565ZM101.407 28.1048C101.407 29.2229 101.013 30.0778 100.246 30.7355C99.4782 31.3713 98.4917 31.7001 97.2859 31.7001C96.4967 31.7001 95.8829 31.5467 95.4444 31.2397C94.9841 30.9328 94.7648 30.5163 94.7648 29.9682C94.7648 29.2667 95.0717 28.7186 95.7075 28.346C96.3433 27.9733 97.4175 27.6225 98.9082 27.2937L101.407 26.7675V28.1048Z" fill="#142630"/>
<path d="M115.481 33.2346C115.481 33.2127 115.481 33.2127 115.481 33.2346C115.481 33.2127 115.481 33.2127 115.481 33.2127V33.1908C115.481 33.1689 115.481 33.1469 115.481 33.125L115.284 31.9412C115.284 31.9412 115.284 31.9412 115.284 31.9193V31.8973L115.262 31.7658C115.24 31.7 115.218 31.6343 115.174 31.5685C115.152 31.5466 115.13 31.5247 115.108 31.5027C115.087 31.4808 115.065 31.4589 115.043 31.4589C114.977 31.415 114.889 31.3712 114.802 31.3493C114.78 31.3493 114.758 31.3493 114.758 31.3493C114.736 31.3493 114.714 31.3493 114.714 31.3493C114.692 31.3493 114.67 31.3493 114.67 31.3493C114.626 31.3493 114.582 31.3712 114.56 31.3712C114.078 31.4808 113.662 31.5247 113.333 31.5247C112.807 31.5247 112.412 31.415 112.149 31.1739C111.908 30.9327 111.776 30.5601 111.776 29.9901V21.9006H114.889C114.999 21.8787 115.108 21.8348 115.174 21.7691C115.196 21.7471 115.218 21.7471 115.218 21.7252C115.24 21.7033 115.24 21.7033 115.262 21.6814C115.328 21.5937 115.372 21.506 115.393 21.3964V20.1468V20.1249C115.393 20.1029 115.393 20.081 115.393 20.081C115.393 19.9714 115.35 19.8618 115.284 19.796C115.262 19.7741 115.24 19.7522 115.218 19.7302C115.218 19.7302 115.218 19.7302 115.196 19.7302C115.174 19.7083 115.152 19.6864 115.13 19.6864C115.065 19.6426 114.977 19.5987 114.889 19.5768H111.754V15.5211C111.754 15.4992 111.754 15.4772 111.754 15.4772C111.754 15.3676 111.71 15.258 111.645 15.1922C111.623 15.1703 111.601 15.1484 111.579 15.1265C111.557 15.1045 111.535 15.0826 111.513 15.0826C111.447 15.0388 111.36 14.9949 111.272 14.973C111.228 14.973 111.206 14.973 111.162 14.973H109.167C109.124 14.973 109.102 14.973 109.058 14.973C108.97 14.9949 108.882 15.0169 108.795 15.0826C108.795 15.0826 108.795 15.0826 108.773 15.1046C108.751 15.1265 108.751 15.1265 108.729 15.1484L108.707 15.1703C108.685 15.1922 108.685 15.2142 108.663 15.2361L108.641 15.258C108.575 15.3457 108.554 15.4334 108.532 15.543V19.6645H106.493C106.471 19.6645 106.449 19.6645 106.449 19.6645C106.361 19.6864 106.274 19.7083 106.186 19.7741C106.186 19.7741 106.186 19.7741 106.164 19.7741C106.142 19.796 106.142 19.796 106.12 19.8179L106.098 19.8399C106.076 19.8618 106.076 19.8837 106.054 19.9056L106.032 19.9275C105.967 20.0152 105.945 20.1029 105.923 20.2125V20.2345V21.4841C105.923 21.506 105.923 21.506 105.923 21.5279C105.945 21.6594 106.011 21.791 106.098 21.8787C106.12 21.9006 106.12 21.9006 106.142 21.9225C106.23 21.9883 106.339 22.0321 106.449 22.0541C106.471 22.0541 106.515 22.0541 106.537 22.0541H108.532V30.3408C108.532 31.6562 108.839 32.6427 109.474 33.2566C110.088 33.8923 111.097 34.1992 112.478 34.1992C113.311 34.1992 114.144 34.0896 114.955 33.8485C114.999 33.8265 115.065 33.8265 115.108 33.8046C115.152 33.7827 115.196 33.7608 115.24 33.7389C115.262 33.7169 115.284 33.7169 115.284 33.695C115.306 33.6731 115.306 33.6731 115.328 33.6512C115.393 33.5635 115.437 33.4758 115.459 33.3662C115.459 33.3442 115.459 33.3223 115.459 33.3004C115.481 33.2566 115.481 33.2566 115.481 33.2346Z" fill="#142630"/>
<path d="M132.055 14.4688C132.055 14.4469 132.055 14.4469 132.055 14.4469V14.425C132.055 14.403 132.055 14.3811 132.055 14.3592C132.055 14.3373 132.055 14.3373 132.055 14.3153C132.033 14.2496 132.011 14.1838 131.967 14.118C131.945 14.0961 131.923 14.0742 131.901 14.0523C131.879 14.0303 131.858 14.0084 131.836 14.0084C131.77 13.9646 131.682 13.9207 131.594 13.8988C131.573 13.8988 131.551 13.8988 131.551 13.8988C131.529 13.8988 131.507 13.8988 131.507 13.8988H119.405C119.362 13.8988 119.34 13.8988 119.296 13.8988H119.274C119.274 13.8988 119.274 13.8988 119.252 13.8988C119.23 13.8988 119.208 13.8988 119.186 13.8988C119.142 13.8988 119.077 13.9207 119.033 13.9427C118.901 13.9865 118.792 14.0303 118.682 14.118L118.66 14.1399C118.638 14.1619 118.594 14.1838 118.572 14.2057C118.55 14.2276 118.55 14.2276 118.529 14.2496C118.507 14.2934 118.463 14.3153 118.441 14.3592C118.419 14.3811 118.419 14.3811 118.397 14.403C118.287 14.5565 118.2 14.7538 118.178 14.9511C118.178 14.973 118.178 14.9949 118.178 14.9949V33.6292C118.178 33.6512 118.178 33.6512 118.178 33.6731C118.2 33.8046 118.265 33.9361 118.353 34.0238C118.375 34.0458 118.375 34.0458 118.397 34.0677C118.485 34.1335 118.594 34.1773 118.704 34.1992C118.726 34.1992 118.77 34.1992 118.792 34.1992H120.94C120.984 34.1992 121.006 34.1992 121.028 34.1992C121.093 34.1992 121.137 34.1773 121.181 34.1554C121.225 34.1335 121.269 34.1115 121.313 34.0896C121.335 34.0677 121.357 34.0677 121.357 34.0458C121.378 34.0238 121.378 34.0238 121.4 34.0019C121.466 33.9142 121.51 33.8265 121.532 33.7169C121.532 33.695 121.532 33.6731 121.532 33.6512V25.6713H130.805H130.827C130.893 25.6713 130.937 25.6494 130.981 25.6274C131.024 25.6055 131.068 25.5836 131.112 25.5617C131.134 25.5398 131.156 25.5398 131.156 25.5178C131.178 25.4959 131.178 25.4959 131.2 25.474C131.266 25.3863 131.309 25.2986 131.331 25.189C131.331 25.1671 131.331 25.1452 131.331 25.1232V23.4352V23.4133V23.3913C131.331 23.3694 131.331 23.3475 131.331 23.3256C131.331 23.3036 131.331 23.3036 131.331 23.2817C131.309 23.2159 131.288 23.1502 131.244 23.0844C131.222 23.0625 131.2 23.0406 131.178 23.0186C131.156 22.9967 131.134 22.9748 131.112 22.9748C131.046 22.931 130.959 22.8871 130.871 22.8652C130.849 22.8652 130.827 22.8652 130.827 22.8652H121.554V16.8145H131.507C131.529 16.8145 131.551 16.8145 131.573 16.8145H131.594C131.66 16.8145 131.704 16.7926 131.748 16.7707C131.792 16.7487 131.836 16.7268 131.879 16.7049C131.901 16.683 131.923 16.683 131.923 16.6611C131.945 16.6391 131.945 16.6391 131.967 16.6172C132.033 16.5295 132.077 16.4418 132.099 16.3322C132.099 16.3103 132.099 16.2884 132.099 16.2665V16.2445L132.055 14.4688Z" fill="#142630"/>
<path d="M147.862 26.5921C147.862 28.8282 147.182 30.6478 145.823 32.0728C144.464 33.4978 142.71 34.1993 140.561 34.1993C138.391 34.1993 136.637 33.4978 135.278 32.0728C133.919 30.6698 133.239 28.8282 133.239 26.5702C133.239 24.2902 133.919 22.4487 135.278 21.0457C136.637 19.6426 138.413 18.9192 140.561 18.9192C142.71 18.9192 144.464 19.6207 145.823 21.0457C147.182 22.4926 147.862 24.3341 147.862 26.5921ZM136.44 26.5921C136.44 28.0829 136.813 29.2886 137.558 30.1874C138.303 31.0863 139.312 31.5467 140.561 31.5467C141.789 31.5467 142.776 31.0863 143.521 30.1874C144.266 29.2886 144.661 28.0829 144.661 26.5921C144.661 25.0795 144.288 23.8737 143.543 22.9749C142.798 22.0761 141.811 21.6157 140.561 21.6157C139.29 21.6157 138.303 22.0761 137.558 22.9749C136.813 23.8737 136.44 25.0795 136.44 26.5921Z" fill="#142630"/>
<path d="M164.194 26.5921C164.194 28.8282 163.514 30.6478 162.155 32.0728C160.796 33.4978 159.042 34.1993 156.893 34.1993C154.723 34.1993 152.969 33.4978 151.61 32.0728C150.251 30.6698 149.571 28.8282 149.571 26.5702C149.571 24.2902 150.251 22.4487 151.61 21.0457C152.969 19.6426 154.745 18.9192 156.893 18.9192C159.042 18.9192 160.796 19.6207 162.155 21.0457C163.514 22.4926 164.194 24.3341 164.194 26.5921ZM152.75 26.5921C152.75 28.0829 153.123 29.2886 153.868 30.1874C154.614 31.0863 155.622 31.5467 156.872 31.5467C158.099 31.5467 159.086 31.0863 159.831 30.1874C160.576 29.2886 160.971 28.0829 160.971 26.5921C160.971 25.0795 160.598 23.8737 159.853 22.9749C159.108 22.0761 158.121 21.6157 156.872 21.6157C155.6 21.6157 154.614 22.0761 153.868 22.9749C153.123 23.8737 152.75 25.0795 152.75 26.5921Z" fill="#142630"/>
<path d="M179.956 14.0743C179.956 14.0523 179.956 14.0523 179.956 14.0743C179.956 14.0523 179.956 14.0523 179.956 14.0304V14.0085C179.956 13.9866 179.956 13.9646 179.956 13.9427C179.956 13.9208 179.956 13.9208 179.956 13.8989C179.934 13.8331 179.912 13.7673 179.868 13.7016C179.846 13.6796 179.824 13.6577 179.803 13.6358C179.781 13.6139 179.759 13.592 179.737 13.592C179.671 13.5481 179.583 13.5043 179.496 13.5043C179.474 13.5043 179.452 13.5043 179.452 13.5043C179.43 13.5043 179.408 13.5043 179.408 13.5043H177.501C177.479 13.5043 177.457 13.5043 177.457 13.5043C177.435 13.5043 177.435 13.5043 177.413 13.5043C177.391 13.5043 177.369 13.5043 177.325 13.5262C177.259 13.5481 177.194 13.57 177.15 13.6139C177.15 13.6139 177.15 13.6139 177.128 13.6139C177.106 13.6358 177.106 13.6358 177.084 13.6577L177.062 13.6797C177.04 13.7016 177.04 13.7235 177.018 13.7454L176.996 13.7673C176.931 13.855 176.909 13.9427 176.887 14.0523C176.887 14.0523 176.887 14.0523 176.887 14.0743V21.1772C175.9 19.7742 174.388 19.0946 172.393 19.0946C170.551 19.0946 169.038 19.7961 167.811 21.1991C166.605 22.6022 165.991 24.4437 165.991 26.6798C165.991 28.9379 166.583 30.7574 167.789 32.1605C168.973 33.5635 170.507 34.2651 172.349 34.2651C174.497 34.2651 176.076 33.432 177.106 31.7659V33.2786V33.3005V33.3224C177.128 33.4539 177.194 33.5855 177.281 33.6732C177.303 33.6951 177.303 33.6951 177.325 33.717C177.413 33.7828 177.523 33.8485 177.632 33.8485H177.654C177.676 33.8485 177.698 33.8485 177.72 33.8485H179.408C179.43 33.8485 179.452 33.8485 179.474 33.8485H179.496C179.561 33.8485 179.605 33.8266 179.649 33.8047C179.693 33.7828 179.737 33.7608 179.781 33.7389C179.803 33.717 179.824 33.717 179.824 33.6951C179.846 33.6732 179.846 33.6732 179.868 33.6512C179.934 33.5635 179.978 33.4759 180 33.3662C180 33.3443 180 33.3224 180 33.3005V33.2786L179.956 14.0743ZM175.813 30.1874C175.067 31.0644 174.103 31.5247 172.897 31.5247C171.757 31.5247 170.836 31.0863 170.135 30.1874C169.455 29.2886 169.104 28.1048 169.104 26.614C169.104 25.1452 169.455 23.9614 170.157 23.0845C170.858 22.1857 171.779 21.7472 172.919 21.7472C174.103 21.7472 175.067 22.1857 175.791 23.0626C176.514 23.9395 176.887 25.1233 176.887 26.614C176.887 28.1048 176.536 29.2886 175.813 30.1874Z" fill="#142630"/>
</svg>
