<?xml version="1.0" encoding="utf-8"?><svg xmlns="http://www.w3.org/2000/svg" xmlns:xlink="http://www.w3.org/1999/xlink"><symbol viewBox="0 0 22 24" id="basket" xmlns="http://www.w3.org/2000/svg"><g clip-path="url(#aclip0)"><path d="M10.363 18.443a2.046 2.046 0 00-2.045 2.042 2.046 2.046 0 004.09 0 2.046 2.046 0 00-2.045-2.042zm6.134 0a2.046 2.046 0 00-2.045 2.042 2.046 2.046 0 004.089 0 2.046 2.046 0 00-2.044-2.042zm3.978-8.199L7.413 6.891a.614.614 0 00-.75.73L8.67 16.4h-.786L5.482 5.895a.613.613 0 00-.474-.464l-4.27-.882A.614.614 0 00.489 5.75l3.885.802L6.797 17.15a.613.613 0 00.598.477h12.07a.615.615 0 00.607-.53l.858-6.175a.613.613 0 00-.455-.678zm-8.14 3.91a.613.613 0 01-1.227 0v-2.696a.613.613 0 011.227 0v2.696zm2.625 0a.613.613 0 01-1.227 0v-1.88a.613.613 0 011.227 0v1.88zm2.625 0a.613.613 0 01-1.227 0v-1.226a.613.613 0 011.227 0v1.226z"/></g><path fill-rule="evenodd" clip-rule="evenodd" d="M16.268 4.568a2.996 2.996 0 00-1.693-.523c-.627 0-1.21.193-1.693.523-.28-.843-.492-1.752-.492-2.383C12.39.98 13.37 0 14.575 0s2.185.98 2.185 2.185c0 .631-.212 1.54-.492 2.383zm-4.722 2.274l.024.006v-.011l-.024.005zm4.972 1.217c-1.333-.33-2.766-.681-4.129-1.013a2.185 2.185 0 114.129 1.013zm4.436 1.103c-.866-.217-2.155-.538-3.618-.9a2.995 2.995 0 00.243-1.425c.87.18 1.762.45 2.308.765.596.344.969.928 1.067 1.56zM9.869 6.439c-.36-.086-.706-.167-1.03-.243a2.19 2.19 0 01-.376-2.667 2.188 2.188 0 013.147-.7c.098.738.338 1.599.61 2.353a3.01 3.01 0 00-.449.774c-.628.113-1.305.278-1.902.483zm10.124.075a3.43 3.43 0 01-.217.114c-.696-.295-1.587-.526-2.397-.672a3.01 3.01 0 00-.449-.774c.262-.727.494-1.553.599-2.273.095-.067.189-.128.278-.18a2.188 2.188 0 012.986.8 2.188 2.188 0 01-.8 2.985z"/><defs><clipPath id="aclip0"><path transform="translate(0 3.064)" d="M0 0h20.936v20.936H0z"/></clipPath></defs></symbol><symbol viewBox="0 0 344.96 344.96" id="check" xmlns="http://www.w3.org/2000/svg"><g data-name="Слой 2"><path d="M321.85 86.24l-40-23.11-23.1-40H212.5L172.48 0l-40 23.11H86.24l-23.11 40-40 23.1v46.21L0 172.48l23.11 40v46.21l40 23.11 23.11 40h46.21l40 23.1 40-23.11h46.21l23.11-40 40-23.11V212.5l23.11-40-23.11-40V86.24zM156.91 243.07a16.79 16.79 0 01-23.34 0l-50.45-50.44a16.19 16.19 0 010-22.89l13.35-13.35a16.19 16.19 0 0122.89 0l25.87 25.87 80.34-80.35a16.19 16.19 0 0122.89 0l13.35 13.35a16.19 16.19 0 010 22.89z" data-name="Capa 1"/></g></symbol><symbol viewBox="0 0 20 12" id="chevron-down" xmlns="http://www.w3.org/2000/svg"><path d="M10.549 11.162l9.235-9.236A.77.77 0 0018.696.838L10.005 9.53 1.314.84A.77.77 0 00.225 1.925l9.236 9.236c.3.3.787.3 1.088 0z"/></symbol><symbol viewBox="0 0 24 24" id="fb" xmlns="http://www.w3.org/2000/svg"><path d="M13.397 20.997v-8.196h2.765l.411-3.209h-3.176V7.548c0-.926.258-1.56 1.587-1.56h1.684v-2.86A22.108 22.108 0 0014.201 3c-2.444 0-4.122 1.492-4.122 4.231v2.355H7.332v3.21h2.753v8.201h3.312z"/></symbol><symbol viewBox="0 0 24 24" id="instagram" xmlns="http://www.w3.org/2000/svg"><path d="M11.999 7.377a4.624 4.624 0 100 9.248 4.624 4.624 0 000-9.248zm0 7.627a3.004 3.004 0 110-6.008 3.004 3.004 0 010 6.008zm4.807-6.719a1.078 1.078 0 100-2.156 1.078 1.078 0 000 2.156z"/><path d="M20.533 6.11A4.605 4.605 0 0017.9 3.48a6.607 6.607 0 00-2.186-.42c-.963-.042-1.268-.054-3.71-.054s-2.755 0-3.71.054a6.554 6.554 0 00-2.184.42 4.6 4.6 0 00-2.633 2.63 6.585 6.585 0 00-.419 2.186c-.043.962-.056 1.267-.056 3.71 0 2.442 0 2.753.056 3.71.015.748.156 1.486.419 2.187a4.61 4.61 0 002.634 2.632 6.583 6.583 0 002.185.45c.963.042 1.268.055 3.71.055s2.755 0 3.71-.055a6.616 6.616 0 002.186-.42 4.613 4.613 0 002.633-2.632c.263-.7.404-1.438.419-2.186.043-.962.056-1.267.056-3.71s0-2.753-.056-3.71a6.583 6.583 0 00-.421-2.217zm-1.218 9.533a5.046 5.046 0 01-.311 1.688 2.987 2.987 0 01-1.712 1.71c-.535.2-1.1.305-1.67.312-.95.044-1.218.055-3.654.055-2.438 0-2.687 0-3.655-.055a4.961 4.961 0 01-1.67-.311 2.984 2.984 0 01-1.718-1.711 5.08 5.08 0 01-.311-1.67c-.043-.95-.053-1.217-.053-3.653 0-2.437 0-2.686.053-3.655a5.038 5.038 0 01.311-1.687c.305-.79.93-1.41 1.719-1.712a5.01 5.01 0 011.669-.311c.95-.043 1.218-.055 3.655-.055s2.687 0 3.654.055a4.96 4.96 0 011.67.31 2.99 2.99 0 011.712 1.713 5.06 5.06 0 01.311 1.669c.043.95.054 1.218.054 3.655 0 2.436 0 2.698-.043 3.654h-.011v-.001z"/></symbol><symbol viewBox="0 0 16 16" id="telegram" xmlns="http://www.w3.org/2000/svg"><g clip-path="url(#fclip0)"><path d="M6.386 9.988l-.248 3.49c.355 0 .508-.153.693-.336l1.664-1.59 3.449 2.525c.632.353 1.078.167 1.249-.582l2.263-10.607h.001c.2-.936-.338-1.301-.954-1.072L1.196 6.91c-.908.353-.894.86-.154 1.09l3.402 1.058 7.902-4.945c.372-.246.71-.11.432.137L6.386 9.988z"/></g><defs><clipPath id="fclip0"><path transform="translate(.5 .5)" d="M0 0h15v15H0z"/></clipPath></defs></symbol><symbol viewBox="0 0 20 17" id="tg" xmlns="http://www.w3.org/2000/svg"><path d="M18.295.147s1.85-.72 1.696 1.028c-.052.72-.514 3.237-.874 5.961l-1.233 8.069s-.103 1.182-1.028 1.388c-.925.205-2.313-.72-2.57-.926-.205-.154-3.854-2.466-5.139-3.597-.36-.309-.77-.925.051-1.645l5.397-5.139c.616-.617 1.233-2.056-1.337-.308L6.063 9.86s-.822.514-2.364.051L.36 8.884s-1.234-.771.873-1.542C6.372 4.926 12.693 2.459 18.295.147z"/></symbol><symbol viewBox="0 0 19 19" id="viber" xmlns="http://www.w3.org/2000/svg"><g clip-path="url(#hclip0)"><path d="M18.09 10.854c.56-4.709-.269-7.681-1.762-9.026C13.918-.47 5.775-.81 2.891 1.93 1.595 3.27 1.139 5.237 1.089 7.67c-.05 2.435-.11 6.997 4.142 8.235h.004l-.004 1.89s-.03.765.46.919c.56.181.812-.174 2.552-2.252 2.91.252 5.144-.326 5.398-.41.587-.198 3.911-.637 4.449-5.199zm-9.56 4.279s-1.842 2.296-2.414 2.892c-.188.194-.393.176-.39-.208 0-.253.014-3.138.014-3.138-3.604-1.033-3.391-4.917-3.352-6.95.039-2.032.41-3.697 1.507-4.818 2.53-2.373 9.67-1.842 11.488-.133 2.223 1.971 1.432 7.54 1.437 7.73-.457 3.808-3.151 4.05-3.646 4.214-.212.07-2.177.576-4.644.41z"/><path d="M9.548 3.357c-.3 0-.3.469 0 .473 2.333.018 4.255 1.644 4.276 4.628 0 .315.461.31.457-.004-.025-3.215-2.124-5.08-4.733-5.097z"/><path d="M12.618 7.963c-.007.311.453.326.457.011.038-1.772-1.054-3.232-3.108-3.386-.301-.022-.332.45-.032.472 1.78.135 2.72 1.351 2.683 2.903zm-.493 2.017c-.386-.224-.778-.085-.941.135l-.34.44c-.172.223-.495.193-.495.193-2.355-.622-2.985-3.086-2.985-3.086s-.028-.334.187-.513l.425-.351c.213-.17.347-.575.13-.975C7.53 4.78 7.14 4.42 6.944 4.143c-.208-.261-.52-.32-.846-.144H6.09c-.676.395-1.415 1.135-1.179 1.897.404.803 1.146 3.363 3.512 5.298 1.112.914 2.871 1.852 3.618 2.068l.007.011c.736.246 1.452-.523 1.834-1.22v-.005c.17-.336.113-.655-.135-.864-.439-.428-1.101-.9-1.622-1.204z"/><path d="M10.288 6.331c.75.044 1.115.436 1.154 1.241.014.315.47.293.457-.021-.05-1.052-.599-1.638-1.586-1.693-.3-.018-.329.455-.025.473z"/></g><defs><clipPath id="hclip0"><path d="M0 0h18.75v18.75H0z"/></clipPath></defs></symbol><symbol viewBox="0 0 24 24" id="vk" xmlns="http://www.w3.org/2000/svg"><path d="M21.579 6.855c.14-.465 0-.806-.662-.806h-2.193c-.558 0-.813.295-.953.619 0 0-1.115 2.719-2.695 4.482-.51.513-.743.675-1.021.675-.139 0-.341-.162-.341-.627V6.855c0-.558-.161-.806-.626-.806H9.642c-.348 0-.558.258-.558.504 0 .528.79.65.871 2.138v3.228c0 .707-.127.836-.407.836-.743 0-2.551-2.73-3.624-5.853-.209-.607-.42-.852-.98-.852H2.752c-.627 0-.752.295-.752.619 0 .582.743 3.462 3.461 7.27 1.812 2.602 4.363 4.012 6.687 4.012 1.393 0 1.565-.313 1.565-.853v-1.966c0-.626.133-.752.574-.752.324 0 .882.164 2.183 1.417 1.486 1.486 1.732 2.153 2.567 2.153h2.192c.626 0 .939-.313.759-.931-.197-.615-.907-1.51-1.849-2.57-.512-.603-1.277-1.253-1.51-1.578-.325-.42-.231-.604 0-.976.001 0 2.672-3.761 2.95-5.04z"/></symbol><symbol viewBox="0 0 19 19" id="whatsapp" xmlns="http://www.w3.org/2000/svg"><g clip-path="url(#jclip0)"><path fill-rule="evenodd" clip-rule="evenodd" d="M15.593 3.131A8.654 8.654 0 009.43.577C4.63.577.722 4.484.721 9.287a8.691 8.691 0 001.162 4.354L.647 18.155l4.618-1.212a8.701 8.701 0 004.163 1.06h.003c4.8 0 8.709-3.907 8.71-8.71a8.657 8.657 0 00-2.548-6.162zM9.43 16.533h-.003a7.23 7.23 0 01-3.685-1.01l-.264-.156-2.74.718.731-2.671-.172-.274A7.222 7.222 0 012.19 9.287c.002-3.992 3.25-7.24 7.243-7.24a7.19 7.19 0 015.118 2.124 7.197 7.197 0 012.119 5.122c-.002 3.992-3.25 7.24-7.24 7.24zm3.971-5.423c-.217-.109-1.287-.635-1.487-.708-.2-.072-.345-.108-.49.11-.145.217-.562.707-.689.853-.127.145-.254.163-.471.054-.218-.109-.92-.339-1.75-1.08-.648-.577-1.084-1.29-1.211-1.508-.127-.218-.001-.324.095-.444.236-.293.472-.6.544-.744.073-.146.036-.273-.018-.382-.054-.109-.49-1.18-.67-1.616-.178-.424-.357-.367-.49-.373a8.698 8.698 0 00-.418-.008.8.8 0 00-.58.272c-.2.218-.762.745-.762 1.816 0 1.071.78 2.106.889 2.251.109.146 1.535 2.344 3.718 3.287.519.224.924.358 1.24.458.522.166.996.143 1.371.086.419-.062 1.288-.526 1.47-1.034.18-.509.18-.944.126-1.035-.054-.091-.2-.146-.417-.255z"/></g><defs><clipPath id="jclip0"><path d="M0 0h18.75v18.75H0z"/></clipPath></defs></symbol></svg>