<svg width="19" height="19" viewBox="0 0 19 19" fill="none" xmlns="http://www.w3.org/2000/svg">
<g clip-path="url(#clip0)">
<path d="M18.09 10.854C18.6494 6.14538 17.8212 3.17272 16.3275 1.82819L16.3283 1.82741C13.9173 -0.468685 5.77515 -0.808529 2.89078 1.93053C1.59547 3.27038 1.13922 5.23678 1.08922 7.67116C1.03922 10.1063 0.979841 14.668 5.23062 15.9055H5.23453L5.23062 17.7954C5.23062 17.7954 5.20172 18.561 5.69078 18.7149C6.25015 18.8962 6.50328 18.5407 8.24312 16.4626C11.1525 16.7149 13.3869 16.1368 13.6408 16.0524C14.2283 15.8555 17.5525 15.4157 18.09 10.854ZM8.52984 15.1329C8.52984 15.1329 6.68843 17.429 6.11578 18.0251C5.92828 18.2188 5.72281 18.2008 5.72593 17.8165C5.72593 17.5641 5.74 14.679 5.74 14.679C2.13609 13.6462 2.34859 9.76178 2.38765 7.72975C2.42672 5.69694 2.79859 4.0321 3.89547 2.911C6.42593 0.538346 13.5642 1.06881 15.383 2.77819C17.6064 4.74928 16.815 10.318 16.8197 10.5079C16.3627 14.3157 13.6689 14.5571 13.1736 14.7219C12.9619 14.7923 10.997 15.2977 8.52984 15.1329Z" fill="white"/>
<path d="M9.54785 3.35693C9.24707 3.35693 9.24707 3.82568 9.54785 3.82959C11.8814 3.84756 13.8033 5.47412 13.8244 8.45771C13.8244 8.77256 14.2853 8.76865 14.2814 8.45381H14.2807C14.2557 5.23896 12.1572 3.3749 9.54785 3.35693Z" fill="white"/>
<path d="M12.6181 7.96343C12.6111 8.27437 13.0712 8.28921 13.0751 7.97437C13.1134 6.20171 12.0205 4.74156 9.96654 4.58765C9.66576 4.56578 9.63451 5.03843 9.93451 5.06031C11.7158 5.19546 12.6541 6.41109 12.6181 7.96343Z" fill="white"/>
<path d="M12.1254 9.97959C11.7394 9.75615 11.3465 9.89521 11.184 10.1147L10.8441 10.5546C10.6715 10.778 10.3488 10.7483 10.3488 10.7483C7.99412 10.1257 7.36443 7.66162 7.36443 7.66162C7.36443 7.66162 7.33553 7.32802 7.55115 7.14912L7.97615 6.79755C8.18865 6.6288 8.32303 6.22255 8.10662 5.82334C7.5285 4.7788 7.14021 4.41865 6.94256 4.14209C6.73474 3.88193 6.42224 3.82334 6.09724 3.99912H6.09021C5.41443 4.39443 4.67459 5.13427 4.91131 5.89599C5.31521 6.69912 6.0574 9.25927 8.42303 11.1936C9.53475 12.1085 11.2941 13.046 12.041 13.2624L12.048 13.2733C12.784 13.5186 13.4996 12.7499 13.8816 12.0538V12.0483C14.0512 11.7116 13.9949 11.3929 13.7473 11.1843C13.3082 10.7561 12.6457 10.2835 12.1254 9.97959Z" fill="white"/>
<path d="M10.2879 6.33107C11.0387 6.37482 11.4028 6.76701 11.4418 7.57248C11.4559 7.88732 11.9129 7.86545 11.8989 7.5506C11.8489 6.49904 11.3004 5.9131 10.3129 5.85841C10.0122 5.84044 9.98403 6.3131 10.2879 6.33107Z" fill="white"/>
</g>
<defs>
<clipPath id="clip0">
<rect width="18.75" height="18.75" fill="white"/>
</clipPath>
</defs>
</svg>
