<svg width="19" height="19" viewBox="0 0 19 19" fill="none" xmlns="http://www.w3.org/2000/svg">
<g clip-path="url(#clip0)">
<path fill-rule="evenodd" clip-rule="evenodd" d="M15.5926 3.1312C13.9481 1.48475 11.761 0.577626 9.43106 0.57666C4.6299 0.57666 0.722456 4.48399 0.720524 9.28644C0.719881 10.8216 1.12092 12.3202 1.88321 13.6412L0.647461 18.1548L5.26505 16.9435C6.53738 17.6375 7.96979 18.0033 9.42751 18.0037H9.43116C14.2318 18.0037 18.1397 14.0961 18.1415 9.29341C18.1424 6.9659 17.2373 4.77753 15.5926 3.1312ZM9.43106 16.5327H9.42805C8.129 16.5322 6.85495 16.183 5.74323 15.5235L5.47898 15.3666L2.73883 16.0854L3.47022 13.4138L3.29802 13.1399C2.57329 11.9872 2.19059 10.6549 2.19123 9.28697C2.19274 5.29531 5.44057 2.0478 9.43395 2.0478C11.3677 2.04844 13.1855 2.80246 14.5524 4.17093C15.9192 5.53939 16.6715 7.35836 16.6709 9.29287C16.6692 13.2849 13.4215 16.5327 9.43106 16.5327ZM13.4022 11.1104C13.1846 11.0014 12.1146 10.4751 11.915 10.4023C11.7157 10.3297 11.5704 10.2936 11.4254 10.5113C11.2803 10.7291 10.8632 11.2194 10.7362 11.3646C10.6092 11.5099 10.4824 11.5281 10.2647 11.4191C10.047 11.3102 9.34576 11.0803 8.51438 10.3388C7.86743 9.76172 7.43066 9.04901 7.30363 8.83121C7.17682 8.6132 7.30256 8.50677 7.39912 8.38704C7.63473 8.09446 7.87065 7.78772 7.94318 7.64256C8.01581 7.49729 7.97944 7.37016 7.92494 7.26126C7.87065 7.15236 7.43538 6.08109 7.25407 5.64518C7.07725 5.22096 6.89798 5.27825 6.76429 5.2716C6.63748 5.26527 6.49232 5.26398 6.34716 5.26398C6.2021 5.26398 5.96628 5.31838 5.76673 5.53639C5.56728 5.75429 5.00509 6.28075 5.00509 7.35203C5.00509 8.4233 5.78497 9.4582 5.89376 9.60347C6.00255 9.74874 7.42852 11.9471 9.61173 12.8897C10.131 13.1142 10.5363 13.2479 10.8525 13.3483C11.3739 13.5139 11.8483 13.4905 12.2233 13.4345C12.6416 13.372 13.5109 12.908 13.6924 12.3996C13.8738 11.8912 13.8738 11.4555 13.8193 11.3646C13.765 11.2738 13.6198 11.2194 13.4022 11.1104Z" fill="white"/>
</g>
<defs>
<clipPath id="clip0">
<rect width="18.75" height="18.75" fill="white"/>
</clipPath>
</defs>
</svg>
